<svg width="40" height="40" viewBox="0 0 40 40" fill="none" xmlns="http://www.w3.org/2000/svg">
<path fill-rule="evenodd" clip-rule="evenodd" d="M32.7215 13.7788C32.907 13.1608 32.7215 12.7065 31.8392 12.7065H28.9219C28.18 12.7065 27.8383 13.0989 27.6528 13.5317C27.6528 13.5317 26.1692 17.1478 24.0674 19.4966C23.3875 20.1766 23.0784 20.3927 22.7075 20.3927C22.5221 20.3927 22.2537 20.1766 22.2537 19.5585V13.7788C22.2537 13.037 22.0384 12.7065 21.4201 12.7065H16.8357C16.3723 12.7065 16.0935 13.0508 16.0935 13.3771C16.0935 14.0804 17.1441 14.2425 17.2525 16.2205V20.5167C17.2525 21.4586 17.0825 21.6294 16.7115 21.6294C15.7226 21.6294 13.317 17.9969 11.89 13.8407C11.6103 13.0328 11.3299 12.7065 10.5843 12.7065H7.66692C6.83339 12.7065 6.66669 13.0989 6.66669 13.5317C6.66669 14.3044 7.65588 18.1369 11.2719 23.2056C13.6829 26.6669 17.0791 28.5435 20.1698 28.5435C22.0244 28.5435 22.2537 28.1268 22.2537 27.4089V24.7927C22.2537 23.9591 22.4293 23.7928 23.0163 23.7928C23.4494 23.7928 24.191 24.0091 25.922 25.6781C27.9 27.6558 28.2259 28.5435 29.3386 28.5435H32.256C33.0895 28.5435 33.5063 28.1268 33.2658 27.3043C33.0028 26.4845 32.0584 25.2955 30.8052 23.8856C30.1253 23.0819 29.1053 22.2164 28.7964 21.7838C28.3636 21.2275 28.4872 20.9803 28.7964 20.486C28.7964 20.486 32.3506 15.479 32.7215 13.7791V13.7788Z" fill="#D8E1E8"/>
</svg>
