<svg width="168" height="47" viewBox="0 0 168 47" fill="none" xmlns="http://www.w3.org/2000/svg">
<path fill-rule="evenodd" clip-rule="evenodd" d="M33.0726 27.1722L32.8185 27.3728C32.666 27.5232 32.2214 27.4981 32.0054 27.4981C31.8149 27.4981 31.7768 27.5482 31.637 27.6109C31.5608 27.6485 31.3702 27.7237 31.3194 27.7613C31.2813 27.7989 31.3067 27.7488 31.2686 27.8114C31.2432 27.849 31.2432 27.8616 31.2305 27.8992C31.0145 28.388 31.0908 28.3378 31.0145 28.8768C30.7223 28.601 30.0871 28.6637 29.8077 29.0021C29.6298 29.2152 29.7441 29.2402 29.6552 29.4157C29.5282 29.6789 29.4774 29.9797 29.4647 30.3432C29.4519 30.5813 29.6298 31.02 29.706 31.2205C29.3122 31.4962 29.4647 31.4336 28.9057 31.4586C28.804 31.4586 28.6262 31.5464 28.5246 31.5965C28.3721 31.6717 28.3975 31.7594 28.2959 31.8848L28.118 31.8597C28.207 31.584 28.0799 31.4461 28.118 31.2456C28.1561 31.0701 28.1816 31.1077 28.2197 30.9949C28.2578 30.8946 28.2451 30.7944 28.2832 30.6941C28.3721 30.456 28.2959 30.3557 28.2197 30.1552C28.118 29.8669 27.9021 29.3405 27.5082 29.4032C27.3431 29.4282 27.4066 29.5034 27.2542 29.4408C27.1398 29.3906 27.089 29.3656 26.9747 29.3906C26.6571 29.4909 26.5555 29.6789 26.4411 29.9546C26.4284 29.9922 26.4157 30.0424 26.3903 30.08L26.3014 30.1928L26.2887 30.2053C26.2379 29.6413 26.3522 29.353 26.2252 29.0773C25.9965 28.6261 26.0854 28.6762 25.6281 28.4005C25.2597 28.1749 25.0056 28.2626 24.6118 28.1373C24.4593 28.0872 24.3577 27.9869 24.2179 27.8992C24.0528 27.7864 24.0528 27.8114 23.9003 27.7488C23.8241 27.7237 23.8368 27.7237 23.7987 27.661C23.8241 27.5858 23.8622 27.6109 23.913 27.5357C23.9384 27.4856 23.9384 27.3978 23.9639 27.3477L24.129 27.0469C24.1798 26.9466 24.256 26.8589 24.2942 26.7461C24.345 26.5706 24.3323 26.4954 24.3323 26.32C24.3196 25.9816 24.256 25.8312 24.129 25.6056C24.0274 25.4301 23.9511 25.3424 23.8241 25.2045C23.7225 25.0917 23.5573 24.9413 23.4049 24.8912C23.0746 24.7909 23.1635 25.029 22.8332 24.9664C22.6935 24.9413 22.5918 24.8661 22.4648 24.9413C22.3505 25.004 22.4521 24.9914 22.2996 25.029C21.8296 25.1418 21.7661 26.0317 21.8042 26.4202C21.8423 26.7837 22.3886 27.6736 22.3886 27.7237C22.3886 27.7989 22.3123 27.8866 22.2615 27.9368C22.2361 27.9618 22.2361 27.9618 22.198 27.9994C22.0964 28.0997 22.0329 28.0997 21.9312 28.2C21.728 28.413 21.5628 28.413 21.2706 28.5008C20.9657 28.5885 20.9022 28.6762 20.7244 28.8893C20.6481 28.977 20.5719 29.0272 20.5211 29.1525C20.4957 29.2277 20.4576 29.4784 20.4449 29.5661C20.4322 29.729 20.483 29.8293 20.483 29.9797L20.4195 30.8445C20.4068 30.9197 20.394 30.9698 20.3813 31.0325L20.3305 31.233C20.1654 31.0701 20.0129 30.9072 19.6572 30.9824C19.4286 31.0325 19.2126 31.208 19.1745 31.4461C19.1364 31.7594 18.9839 31.6968 18.9966 32.1981C18.9966 32.4989 19.1364 32.6994 19.2253 32.925C19.1745 33.0002 19.1745 33.0253 19.0728 33.0754C18.9712 32.9125 18.9585 32.4112 18.9204 32.2232C18.8061 31.6341 18.7171 31.0701 18.8188 30.481C18.8823 30.1301 18.7934 30.0298 18.6917 29.7165C18.5901 29.4282 18.4503 29.3781 18.2217 29.2026C17.9295 28.9645 17.8914 29.0021 17.523 28.9144C16.8751 28.7514 17.0148 28.764 16.4939 28.4506C16.3923 28.388 16.4177 28.413 16.2907 28.388C16.1891 28.3754 16.1636 28.3754 16.1382 28.2877C16.2272 28.1749 16.2145 28.3253 16.278 28.1373L16.5702 27.4981C16.6845 27.2976 16.6845 27.26 16.6845 26.9968C16.6718 26.4704 16.405 26.1445 16.1001 25.7434C15.9985 25.6181 15.8715 25.568 15.719 25.4928C15.5284 25.38 15.4014 25.5178 15.2363 25.5304C15.1346 25.5304 14.7789 25.4802 14.69 25.4928C14.5502 25.5178 14.5375 25.6306 14.3978 25.6808C14.3343 25.7058 14.347 25.6933 14.2962 25.7309C13.915 26.0442 13.8642 26.8965 14.131 27.3978L14.5884 28.4882C14.5375 28.5634 14.5757 28.5133 14.5248 28.576L14.0675 28.952C13.661 29.165 13.2163 29.1525 12.9623 29.516C12.9114 29.5912 12.886 29.6288 12.8352 29.704C12.632 29.9797 12.6065 30.1176 12.6192 30.5061L12.632 30.6064C12.3906 30.4685 12.3906 30.6816 12.0603 30.3933C11.9586 30.3056 11.9713 30.3557 11.8697 30.293C11.857 29.9546 11.9841 30.1301 12.073 29.7416L12.2 29.1274C12.2127 28.9144 12.2508 29.0146 12.1619 28.8266C12.1111 28.7264 12.073 28.5258 11.8189 28.388C11.514 28.225 11.1837 28.2877 10.9677 28.5384C10.9042 28.6136 10.8534 28.6888 10.8534 28.789C10.8407 28.9896 10.7264 29.1274 10.7137 29.3906C10.7137 29.516 10.701 29.6664 10.7264 29.7666C10.7772 29.9672 10.9042 30.1677 10.9423 30.3306C10.8407 30.3933 10.828 30.4434 10.7264 30.481C10.6247 30.5061 10.485 30.5061 10.3834 30.5312C10.2563 30.5437 10.2182 30.5938 10.1293 30.6314C10.0022 30.6941 10.0276 30.6941 9.96413 30.857C9.8879 31.0325 9.92602 31.3333 9.90061 31.5338C9.8879 31.609 9.8625 31.6968 9.84979 31.772C9.90061 32.4237 9.82439 33.088 9.63383 33.6896L9.5576 34.9805C9.76086 34.2912 10.0658 33.6144 10.1674 32.9L10.3579 31.6968L11.3362 32.4488C11.9332 32.9125 12.3906 33.5266 12.6955 34.2034C13.0766 35.0432 13.2671 36.0333 13.1782 36.9608C13.1274 37.4621 12.9877 37.976 12.7209 38.4021C12.9114 38.5149 13.0893 38.6402 13.2799 38.753C13.1909 37.7629 13.4196 36.7728 13.3053 35.7826L13.1655 34.5669L14.3089 35.0432C15.033 35.344 15.6682 35.8453 16.1636 36.4469C16.7734 37.1738 17.2308 38.1138 17.3959 39.0413C17.4849 39.5677 17.4976 40.1442 17.3451 40.6581C17.523 40.7208 17.6881 40.7834 17.866 40.8336C17.5357 39.8309 17.5357 38.7656 17.18 37.7754L16.7734 36.6224L17.993 36.8354C18.8061 36.9733 19.5556 37.3368 20.2035 37.8381C21.0038 38.4522 21.6899 39.3045 22.0837 40.2194C22.3123 40.7584 22.4521 41.36 22.3759 41.9365C23.9257 42.2122 25.4502 42.4754 26.9874 42.8389C28.5246 42.4754 30.049 42.2122 31.5989 41.9365C31.5354 41.36 31.6751 40.7458 31.8911 40.2194C32.2849 39.292 32.9709 38.4397 33.7713 37.8381C34.4192 37.3493 35.1687 36.9733 35.9818 36.8354L37.2013 36.6224L36.7948 37.7754C36.4391 38.7656 36.4391 39.8309 36.1088 40.8336C36.2867 40.7709 36.4518 40.7208 36.6297 40.6581C36.4772 40.1442 36.4772 39.5677 36.5789 39.0413C36.744 38.1013 37.2013 37.1738 37.8111 36.4469C38.3066 35.8453 38.9291 35.344 39.6659 35.0432L40.8093 34.5669L40.6695 35.7826C40.5552 36.7728 40.7838 37.7629 40.6949 38.753C40.8855 38.6402 41.076 38.5274 41.2539 38.4021C40.9871 37.976 40.8474 37.4621 40.7966 36.9608C40.7076 36.0458 40.8982 35.0432 41.2793 34.2034C41.5842 33.5266 42.0415 32.9 42.6386 32.4488L43.6168 31.6968L43.8074 32.9C43.9217 33.6144 44.2139 34.2786 44.4172 34.968C44.5061 34.592 44.4934 34.2661 44.4426 33.9653C44.4172 33.8901 44.3791 33.8149 44.3537 33.7272C44.1377 33.0754 44.0615 32.3485 44.1377 31.6466L44.125 31.609C44.0361 31.3834 44.0615 31.3584 43.8836 31.233C43.3755 30.8821 43.6041 31.0325 43.007 30.8821C42.6259 30.7944 42.5243 30.5562 42.1432 30.5186C42.1178 30.4058 42.1178 30.4309 42.2194 30.4058C42.2575 30.1426 42.2829 30.3181 42.3718 30.1176C42.6132 29.6037 42.7276 29.2778 42.3972 28.7514L42.1813 28.5008C41.9526 28.225 41.7875 28.3629 41.4953 28.3504C41.165 28.3378 41.0887 28.2626 40.8474 28.5509C40.6949 28.7264 40.5552 28.9018 40.5171 29.1525C40.4663 29.4658 40.5171 29.6538 40.6568 29.9045C40.6949 29.9922 40.7584 30.1677 40.7966 30.2304C40.8347 30.2805 40.8347 30.268 40.8474 30.2805C40.8982 30.3181 40.8728 30.293 40.8982 30.3557C40.9617 30.4936 40.8855 30.3933 40.9871 30.5061L40.733 30.7944C40.5552 30.9698 40.3265 31.045 40.0343 31.0826C40.047 30.9072 40.0724 30.8696 40.047 30.6565C40.0216 30.456 39.9835 30.456 39.8565 30.3557C39.3356 29.9045 39.577 30.1802 39.2086 30.0048C39.2721 29.8544 39.2721 29.6413 39.234 29.4784C39.2213 29.4282 39.1832 29.3405 39.1832 29.2778C39.1832 29.165 39.2594 28.977 39.3229 28.9018C39.4499 28.7514 39.4118 28.7264 39.4499 28.5133C39.4881 28.2877 39.5516 28.3504 39.5389 28.0496C39.5262 27.8114 39.2467 27.1346 39.0561 26.9466C38.9672 26.8589 38.8783 26.7336 38.7766 26.6834C38.6623 26.6208 38.4971 26.5957 38.3574 26.6458C38.1033 26.7336 38.1923 26.6458 37.9382 26.6082C37.6714 26.5581 37.3284 26.7712 37.214 26.9216C37.0997 27.072 37.0235 27.2474 36.9473 27.4354C36.8837 27.5858 36.7694 27.7362 36.6932 27.9869C36.6678 28.0496 36.6297 28.388 36.6297 28.4632C36.2485 28.2125 36.3248 27.9744 35.7404 27.8992C35.6642 27.8866 35.499 27.8741 35.4355 27.8365C35.2831 27.7613 35.1941 27.4981 34.94 27.4229L34.7876 27.3602C34.7876 27.1973 34.8003 26.9842 34.9146 26.8965C35.2831 26.5957 35.2703 26.0192 35.4482 25.6056H35.4736C35.499 25.6056 35.4609 25.6306 35.5117 25.6056C35.5244 25.029 35.7277 24.9914 35.5371 24.6906C35.4228 24.5152 35.4736 24.3272 35.2703 24.1016C35.2068 24.0389 35.1941 24.0013 35.1433 23.9386C35.0544 23.8258 34.94 23.7632 34.813 23.7005C34.3684 23.4749 33.8602 23.5626 33.4791 23.8133C33.3775 23.8885 33.2758 24.0013 33.1996 24.1016C33.009 24.3522 33.1361 24.3146 33.0726 24.5402C33.0599 24.5904 33.009 24.6405 32.9709 24.7282C32.8947 24.9162 32.9201 24.9538 32.8185 25.1418C32.7804 25.217 32.7804 25.2672 32.7677 25.3674C32.6915 26.0317 32.7042 26.2197 32.8947 26.8213C32.9709 26.884 33.0472 27.0344 33.0726 27.1722ZM27.0001 30.6064L27.5464 34.5418L28.5373 32.8749L28.0418 34.7424L31.2432 32.336L28.804 35.4944L30.6969 35.0056L29.0073 35.9832L32.9963 36.5221L29.0073 37.061L30.6969 38.0386L28.804 37.5498L31.2432 40.7082L28.0418 38.3018L28.5373 40.1693L27.5464 38.5024L27.0001 42.4378L26.4538 38.5024L25.4629 40.1693L25.9584 38.3018L22.757 40.7082L25.1961 37.5498L23.3032 38.0386L24.9929 37.061L21.0038 36.5221L24.9929 35.9832L23.3032 35.0056L25.1961 35.4944L22.757 32.336L25.9584 34.7424L25.4629 32.8749L26.4538 34.5418L27.0001 30.6064Z" fill="url(#paint0_linear)"/>
<path fill-rule="evenodd" clip-rule="evenodd" d="M17.8913 37.4747C18.4884 39.1541 18.1454 40.9464 19.6063 42.0243C18.4757 41.736 17.3704 41.3851 16.316 40.9715C17.4466 39.8309 16.2652 36.5597 14.042 35.6448C14.2326 37.3368 13.5338 38.9285 14.6645 40.2571C13.5592 39.7307 12.5302 39.1291 11.5901 38.4523C12.9749 37.7379 12.7335 34.3789 10.8914 32.9627C10.6246 34.6171 9.5194 35.9456 10.3706 37.4997C10.2816 37.4245 10.2054 37.3493 10.1165 37.2741C9.25262 36.4971 8.46497 35.6573 7.75355 34.7675C9.2145 34.4291 9.69725 31.208 8.26171 29.516C7.69003 30.9699 6.44505 31.96 6.82617 33.5141C6.12745 32.4864 5.53036 31.4085 5.02221 30.2931C6.44505 30.2429 7.53759 27.3728 6.55938 25.5304C5.77174 26.7085 4.48864 27.3853 4.41242 28.764C4.0186 27.6485 3.7137 26.4955 3.51044 25.3299C4.83165 25.5429 6.41964 23.124 5.89878 21.2315C4.95869 22.1339 3.701 22.4973 3.28177 23.6379C3.23095 23.124 3.20555 22.6101 3.19284 22.0837C3.18014 21.4069 3.18014 20.7552 3.23095 20.116C4.41242 20.68 6.41964 18.6371 6.25449 16.732C5.21277 17.4213 3.96778 17.5467 3.3834 18.5744C3.56126 17.3211 3.84074 16.1429 4.22186 15.0149C5.16195 15.8797 7.52488 14.3507 7.75355 12.5333C6.66101 12.9595 5.49225 12.8467 4.75543 13.6613C5.25088 12.5333 5.84796 11.468 6.54668 10.4528C7.28351 11.3552 9.68455 10.4277 10.2816 8.836C9.31614 8.9864 8.37605 8.73573 7.5884 9.08667C8.29982 8.20933 9.10017 7.38213 9.95133 6.59253C10.4976 7.52 12.8605 7.08133 13.6736 5.70267C12.8097 5.6776 12.0348 5.32667 11.2852 5.452C12.1237 4.7752 13.0257 4.12347 13.9658 3.50933C14.169 4.49947 16.3922 4.83787 17.5483 3.8728C16.5828 3.50933 15.9222 2.71973 14.9186 2.8952C15.0456 2.82 15.1853 2.73227 15.3124 2.65707C16.0492 3.4216 18.0945 2.41893 18.5519 0.927467C17.2307 1.21573 16.0238 0.651733 15.2489 2.50667C14.9186 2.7072 14.5883 2.90773 14.2707 3.1208C15.2743 2.19333 15.287 1.04027 15.5538 0.0125333C14.4485 0.363467 12.6319 2.41893 13.6482 3.5344C12.5937 4.2112 11.6028 4.93813 10.6755 5.69013C10.5103 5.7904 10.3579 5.91573 10.1927 6.0912C10.1546 6.1288 10.1165 6.15387 10.0784 6.19147C10.8025 4.87547 10.3833 3.6848 10.2816 2.54427C9.32884 3.25867 8.28712 5.84053 9.5321 6.66773C8.49038 7.60773 7.53759 8.6104 6.71183 9.67573C7.01672 8.32213 6.41964 7.2568 6.11475 6.17893C5.27629 7.09387 4.70461 9.87627 6.05123 10.5907C5.33981 11.6184 4.74272 12.7088 4.24727 13.8869C4.12023 12.6211 3.34529 11.7312 2.82443 10.7661C2.18923 11.8816 2.24005 14.8144 3.72641 15.3157C3.35799 16.4688 3.09121 17.6845 2.93876 18.988C2.53224 17.6595 1.51592 16.8824 0.740985 15.98C0.321755 17.3085 1.07129 20.4544 2.81172 20.5045C2.78632 21.0309 2.77361 21.5573 2.78632 22.1088C2.79902 22.8483 2.84984 23.5877 2.93876 24.3147C2.27816 22.9109 1.02047 22.2843 0.016861 21.4696C-0.173698 22.9611 1.27455 26.2072 3.16743 25.7685C3.39611 26.9843 3.72641 28.1624 4.15834 29.3029C3.15473 28.0747 1.7573 27.7112 0.550426 27.1096C0.702873 28.6888 2.95147 31.7093 4.79354 30.8195C5.28899 31.8723 5.87337 32.8875 6.53398 33.8525C5.25088 32.8875 3.76452 32.8248 2.43061 32.4864C2.95147 34.0907 5.975 36.7101 7.66462 35.344C8.32523 36.1461 9.04935 36.8981 9.837 37.6C9.90052 37.6501 9.95133 37.7003 10.0149 37.7629C8.50308 37.0987 6.99132 37.3493 5.55577 37.2867C6.45775 38.8283 10.2054 40.8837 11.6155 39.0288C12.4794 39.6555 13.4068 40.2195 14.385 40.7208C12.7081 40.4952 11.2725 41.1344 9.82429 41.4603C11.1582 42.7637 15.4394 43.8165 16.4176 41.6608C17.3196 42.0243 18.2597 42.3376 19.2379 42.6008C17.5737 42.8013 16.3033 43.7413 14.9567 44.3805C16.6082 45.3957 21.1562 45.4835 21.7152 43.1272C23.2905 43.3904 24.5354 43.5784 25.6788 43.8541C23.8494 44.3805 22.1979 45.0573 21.3213 45.9723L21.7914 47C23.9129 45.5085 25.4374 44.7315 27 44.2176C28.5626 44.7315 30.0744 45.5085 32.2086 47L32.6787 45.9723C31.8148 45.0573 30.1633 44.3805 28.3212 43.8541C29.4646 43.5784 30.7096 43.3904 32.2848 43.1272C32.8438 45.4835 37.3918 45.3832 39.0433 44.3805C37.6967 43.7413 36.439 42.8013 34.7621 42.6008C35.7276 42.3376 36.6677 42.0243 37.5824 41.6608C38.5479 43.8165 42.8418 42.7637 44.1757 41.4603C42.7402 41.1344 41.3046 40.4952 39.615 40.7208C40.5932 40.2195 41.5206 39.6429 42.3845 39.0288C43.7946 40.8837 47.5422 38.8283 48.4442 37.2867C47.0087 37.3493 45.4969 37.0987 43.9852 37.7629C44.0487 37.7128 44.0995 37.6627 44.163 37.6C44.9506 36.8981 45.6748 36.1336 46.3354 35.344C48.025 36.7101 51.0485 34.0907 51.5694 32.4864C50.2228 32.8248 48.7491 32.9 47.466 33.8525C48.1393 32.8875 48.711 31.8723 49.2065 30.8195C51.0485 31.7093 53.2971 28.6888 53.4496 27.1096C52.2427 27.7112 50.8453 28.0747 49.8417 29.3029C50.2736 28.1624 50.6039 26.9717 50.8326 25.7685C52.7255 26.2072 54.1737 22.9736 53.9831 21.4696C52.9668 22.2843 51.7218 22.9109 51.0612 24.3147C51.1502 23.5877 51.201 22.8483 51.2137 22.1088C51.2264 21.5573 51.2137 21.0309 51.1883 20.5045C52.9414 20.4544 53.6782 17.3085 53.259 15.98C52.4841 16.8824 51.4678 17.6469 51.0612 18.988C50.9088 17.6845 50.642 16.4688 50.2736 15.3157C51.76 14.8144 51.8108 11.8816 51.1756 10.7661C50.642 11.7312 49.8798 12.6211 49.7527 13.8869C49.27 12.7213 48.6602 11.6184 47.9488 10.5907C49.2954 9.87627 48.7237 7.09387 47.8853 6.17893C47.5804 7.26933 46.9833 8.33467 47.2882 9.67573C46.4624 8.6104 45.5223 7.60773 44.4679 6.66773C45.7129 5.828 44.6712 3.25867 43.7311 2.54427C43.6294 3.69733 43.2102 4.87547 43.9343 6.19147C43.8962 6.15387 43.8581 6.1288 43.82 6.0912C43.6548 5.91573 43.5024 5.7904 43.3372 5.69013C42.4099 4.93813 41.419 4.2112 40.3645 3.52187C41.3808 2.4064 39.5642 0.350933 38.4589 0C38.7257 1.02773 38.7384 2.1808 39.742 3.10827C39.4244 2.90773 39.0941 2.69467 38.7638 2.49413C38.0016 0.6392 36.782 1.2032 35.4354 0.927467C35.8927 2.43147 37.9508 3.4216 38.6749 2.65707C38.8147 2.73227 38.9417 2.82 39.0687 2.8952C38.0651 2.71973 37.4045 3.50933 36.439 3.8728C37.5951 4.83787 39.831 4.49947 40.0215 3.50933C40.9616 4.12347 41.8636 4.7752 42.7021 5.452C41.9525 5.32667 41.1776 5.6776 40.3137 5.70267C41.1268 7.08133 43.4897 7.53253 44.036 6.59253C44.8998 7.38213 45.6875 8.20933 46.3989 9.08667C45.6113 8.7232 44.6712 8.9864 43.7057 8.836C44.29 10.4403 46.7038 11.3552 47.4406 10.4528C48.1393 11.468 48.7364 12.5333 49.2319 13.6613C48.495 12.8341 47.3136 12.9595 46.2337 12.5333C46.4624 14.3632 48.8253 15.8923 49.7654 15.0149C50.1466 16.1429 50.4387 17.3211 50.6039 18.5744C50.0322 17.5467 48.7745 17.4213 47.7328 16.732C47.5677 18.6245 49.5749 20.6675 50.7563 20.116C50.7945 20.7552 50.8072 21.4069 50.7945 22.0837C50.7817 22.5976 50.7563 23.124 50.7055 23.6379C50.2863 22.4973 49.0286 22.1213 48.0885 21.2315C47.5677 23.124 49.1684 25.5429 50.4769 25.3299C50.2736 26.508 49.9687 27.6485 49.5749 28.764C49.4987 27.3728 48.2156 26.7085 47.4279 25.5304C46.4497 27.3728 47.555 30.2555 48.9651 30.2931C48.4569 31.4211 47.8599 32.4989 47.1611 33.5141C47.5423 31.96 46.2846 30.9699 45.7256 29.516C44.29 31.208 44.7728 34.4165 46.2337 34.7675C45.5223 35.6573 44.7347 36.4971 43.8708 37.2741C43.7819 37.3493 43.7057 37.4245 43.6167 37.4997C44.4679 35.9456 43.3627 34.6171 43.0959 32.9627C41.2665 34.3664 41.0251 37.7253 42.3972 38.4523C41.4571 39.1165 40.4281 39.7181 39.3228 40.2571C40.4535 38.9411 39.7547 37.3493 39.9453 35.6448C37.7221 36.5597 36.5406 39.8309 37.6713 40.9715C36.6169 41.3851 35.5116 41.736 34.381 42.0243C35.8419 40.9339 35.5116 39.1541 36.096 37.4747C33.5806 37.9008 31.5988 41.0341 32.5389 42.4253C31.1542 42.676 29.0326 43.0144 26.9746 43.5032C24.9039 43.0019 22.795 42.676 21.4103 42.4253C22.3885 41.0216 20.4067 37.9008 17.8913 37.4747Z" fill="url(#paint1_linear)"/>
<path fill-rule="evenodd" clip-rule="evenodd" d="M35.3211 8.82353L35.1305 8.811C35.156 8.86113 35.1941 8.8862 35.1941 8.94886C35.1814 9.0366 35.1687 8.9238 35.0797 8.9238C34.9273 8.9238 35.0289 8.94886 34.8892 8.9238C34.724 8.8862 34.6478 8.9614 34.4954 8.999C34.1142 9.1118 34.3302 8.94886 33.9618 9.2246C34.0634 9.27473 33.9745 9.21206 34.0253 9.2998C34.0634 9.34993 34.0634 9.3374 34.0888 9.4126L33.9999 9.47526C33.9745 9.38753 34.0507 9.4502 33.9999 9.375C33.7966 9.36246 33.6188 9.38753 33.4409 9.42513C33.479 9.6382 33.5044 9.6758 33.7204 9.751C33.695 9.91393 33.6823 9.85126 33.7204 10.0017L33.6442 9.7886L33.6569 9.77606C33.479 9.751 33.2504 9.51286 33.0598 9.76353C33.136 9.91393 33.1868 9.751 33.2377 9.91393L32.9963 9.8638C32.9836 9.6758 33.0598 9.66326 32.9709 9.563L32.9455 9.68833C32.9074 9.77606 32.9074 9.7134 32.8184 9.7886C32.8184 9.92646 32.8565 9.87633 32.8565 9.9766C32.8565 10.0643 32.8184 10.0393 32.8184 10.1897C33.009 10.2649 33.1487 10.2147 33.1868 10.4027L33.2377 10.5406C33.0471 10.5155 33.1741 10.4779 33.1233 10.3401C32.7676 10.2273 32.9836 10.4278 32.882 10.5782C32.7676 10.7537 32.6152 10.7913 32.45 10.691C32.5008 10.6534 32.5771 10.6659 32.6533 10.6785C32.6914 10.5907 32.7549 10.5406 32.7803 10.4403C32.8438 10.2398 32.7168 10.4027 32.7168 10.2022C32.7168 10.0769 32.7549 10.0017 32.7041 9.87633C32.6152 9.6758 32.7549 9.7886 32.7295 9.58806C32.6533 9.55046 32.5008 9.5254 32.4119 9.5254C32.323 9.6758 32.3865 9.751 32.1832 9.83873C32.1959 9.9766 32.2468 10.0017 32.1832 10.1145L32.2849 10.2022C32.3103 10.2398 32.3611 10.2774 32.3611 10.3275C32.3611 10.4403 32.0816 10.2649 32.0308 10.2398C31.9292 10.2022 32.107 10.3025 31.9927 10.2147C31.9038 10.1521 31.7259 10.1145 31.5989 10.127L31.5353 10.4027C31.5353 10.3902 31.5226 10.3777 31.5226 10.3777C31.4972 10.4403 31.4972 10.3401 31.4972 10.3401C31.4718 10.3025 31.5099 10.315 31.4337 10.2774C31.294 10.3777 31.2813 10.315 31.0399 10.4153L30.9764 10.2774C30.7985 10.3651 30.5571 10.4654 30.4555 10.5782C30.3285 10.7161 30.4301 10.6158 30.2776 10.6785C30.2141 10.6283 30.2141 10.6283 30.176 10.5657C30.2395 10.5155 30.2649 10.5155 30.3158 10.4654C30.2522 10.3777 30.176 10.3777 30.0236 10.3651C30.1506 10.5281 30.0617 10.4403 30.0744 10.5782C30.0744 10.7411 30.0871 10.5155 30.0998 10.691C30.1125 10.7787 30.0998 10.7411 30.0744 10.8289C29.8965 10.6534 29.8584 10.8038 29.6806 10.8915L29.706 11.067C29.5916 11.0419 29.49 10.9918 29.3884 11.0043C29.4011 11.1171 29.4773 11.067 29.49 11.1923L29.3121 11.1297C29.147 11.0043 29.2994 10.9166 29.1724 10.7913C29.1216 10.7411 29.0581 10.7161 29.02 10.6659C29.2867 10.7035 29.6297 11.0043 29.8457 10.6659C29.8076 10.4529 29.6806 10.4905 29.5281 10.3777C29.4011 10.2899 29.2994 10.1771 29.1216 10.2398L29.0327 10.1145C28.8929 10.127 28.9437 10.1521 28.7786 10.1521L28.8802 10.0267C28.6897 9.92646 28.7024 9.91393 28.6515 10.0393C28.6007 9.9766 28.6388 10.0393 28.6261 9.9766L28.6134 9.91393C28.5245 9.95153 28.5499 9.95153 28.4864 10.0267L28.461 9.939C28.3975 9.98913 28.4102 10.0017 28.3467 10.0267L28.3848 9.91393C28.2831 9.95153 28.2196 10.0017 28.1942 10.0894C28.0799 10.0267 28.1815 10.0393 28.0418 10.0267C27.9909 10.127 28.0799 10.0643 28.0036 10.1019C27.9147 10.1646 27.9528 10.1019 27.8766 10.127L27.8639 10.1395C27.7877 10.1771 27.7369 10.2022 27.6479 10.1646C27.6098 10.2398 27.6733 10.2273 27.6098 10.2774C27.5717 10.3025 27.5209 10.2774 27.4828 10.2899L27.559 10.3902C27.343 10.5281 27.5082 10.503 27.3684 10.5782C27.3303 10.5907 27.3049 10.6033 27.2541 10.6409C27.2668 10.7913 27.3176 10.691 27.2541 10.7662L27.0763 11.0419C27.0509 11.067 26.9619 11.1046 26.8857 11.2049L26.6443 11.4179C26.6443 11.4179 26.7078 11.3678 26.6189 11.4305C26.5173 11.5057 26.53 11.6185 26.53 11.7313L26.6697 11.6937C26.6443 11.7814 26.6316 11.7563 26.5681 11.8315L26.6062 11.9318C26.6316 12.1073 26.5808 12.1574 26.8476 12.1574C26.9111 12.0947 26.9746 11.9569 27.0763 11.9694C27.1271 12.0571 27.1144 12.1574 27.1652 12.2702C27.2033 12.3579 27.2033 12.3329 27.2287 12.4206C27.2414 12.4958 27.2414 12.5083 27.2668 12.5961C27.4066 12.5835 27.3049 12.5961 27.4066 12.5334C27.5336 12.4582 27.559 12.4958 27.5971 12.2953C27.6098 12.2577 27.6098 12.195 27.6098 12.1574C27.6606 11.9694 27.6479 12.1699 27.8131 11.8441C27.6606 11.631 27.5336 11.5182 27.8258 11.2675L28.0163 11.0795C28.0418 10.9793 28.0163 10.8414 28.1815 10.8163C28.6261 10.7662 28.0672 11.2801 27.9782 11.3302C28.0163 11.5057 28.0418 11.5307 28.0163 11.7187C28.2958 11.9193 28.3212 11.7563 28.6134 11.7438C28.7151 11.7438 28.7024 11.7563 28.7659 11.819C28.5118 11.9569 28.4102 11.8315 28.2323 11.9694C28.2196 12.1699 28.3721 12.1574 28.245 12.3203C28.0799 12.2577 28.245 12.2326 28.0672 12.2201C27.9909 12.3203 28.0036 12.3955 27.9782 12.5209C27.9401 12.6963 27.9147 12.6211 27.8258 12.759C27.6606 12.6838 27.8639 12.6337 27.6606 12.6838C27.5717 12.7089 27.5844 12.7465 27.4828 12.7841C27.2287 12.8843 27.4193 12.6211 27.089 12.8091C27.0127 12.7089 26.8984 12.6838 26.9619 12.571C27.0508 12.3955 27.0254 12.6587 27.0254 12.2326C26.6062 12.3705 26.8476 12.5083 26.8476 12.8467C26.7714 12.8843 26.6189 12.8843 26.5427 12.9345C26.4792 12.9846 26.4538 13.1225 26.3775 13.1977C26.2632 13.3355 26.3267 13.1726 26.1616 13.4107C26.0981 13.4985 26.0091 13.5486 25.8948 13.511C25.8313 13.6363 25.9837 13.6113 25.8059 13.6363C25.7042 13.6489 25.6915 13.5987 25.6534 13.7366L25.6915 13.7617C25.844 13.8243 25.844 13.8619 25.9075 13.9998C25.9583 14.1126 25.9329 14.2881 25.9075 14.4134C25.7805 14.451 25.4375 14.4009 25.285 14.3758L25.1961 14.4761C25.2469 14.6139 25.2469 14.4635 25.2469 14.5889C25.2469 14.8019 25.2342 14.8145 25.1961 15.0025C25.1453 15.2531 25.285 15.1153 25.2215 15.3534C25.2977 15.3534 25.3866 15.3283 25.4375 15.3659C25.4883 15.4035 25.501 15.5038 25.4883 15.5539C25.4247 15.9174 25.3231 15.7294 25.2215 15.9174C25.0944 16.1555 25.2088 16.3937 24.942 16.5441C24.7768 16.6443 24.9039 16.519 24.7896 16.7195C24.726 16.8323 24.7387 16.7822 24.6879 16.9201C24.6371 17.083 24.5609 17.1331 24.5101 17.3462L24.5482 17.7222C24.5736 17.8601 24.5736 17.9353 24.5355 18.0731C24.472 18.3614 24.5228 18.3614 24.5228 18.6497L24.6625 18.6747C24.599 18.775 24.7641 18.8878 24.8023 18.9881C24.8785 19.1761 24.8785 19.2137 25.0436 19.3515C25.2977 19.5771 25.2469 19.6774 25.5137 19.5395C25.6407 19.4769 25.755 19.5145 25.844 19.527C25.9583 19.5395 26.1489 19.339 26.4538 19.339C26.5046 19.4142 26.5554 19.4643 26.5681 19.6022L26.7078 19.5646C26.7205 19.5646 26.7841 19.5646 26.7968 19.5646C27 19.5646 26.9365 19.8779 26.9238 20.0659C26.8984 20.279 26.6951 20.0283 27.1144 20.6801C27.1906 20.7929 27.2033 20.9182 27.2414 21.0435L27.3176 21.5323C27.3557 21.7203 27.3176 21.6702 27.2541 21.8081C27.1906 21.9334 27.1398 22.2969 27.1652 22.4598C27.2033 22.6478 27.3303 22.8107 27.3812 22.9862C27.432 23.1867 27.4193 23.4374 27.4828 23.6379C27.5209 23.7507 27.559 23.7758 27.6098 23.8761C27.8004 24.2771 27.6479 24.4526 27.8766 24.6782C27.9782 24.6531 27.8639 24.6782 27.9782 24.6406C28.0163 24.6281 28.0672 24.6155 28.0926 24.603C28.3721 24.5153 28.2196 24.6782 28.5753 24.4777C28.7913 24.3649 28.8675 24.0891 28.9946 23.9011C29.2486 23.5126 28.9056 23.5001 29.3376 23.2745C29.3376 22.6854 29.1724 22.8233 29.4265 22.4974C29.5535 22.347 29.7441 22.2843 29.7949 22.0838C29.833 21.9209 29.8076 21.5449 29.7314 21.407C29.6933 21.3193 29.6297 20.843 29.6806 20.7427C29.7187 20.655 29.7441 20.5297 29.7949 20.4545C29.8584 20.3542 29.8965 20.3417 29.9601 20.2289C30.1252 19.8905 30.3666 19.8905 30.608 19.2763C30.6842 19.0883 30.7985 18.8502 30.7604 18.6371C30.6715 18.6622 30.7096 18.6747 30.6334 18.6998C30.5444 18.7249 30.5317 18.7123 30.4428 18.7249C30.3539 18.7499 30.2395 18.8001 30.0998 18.8001C29.9982 18.5745 30.0236 18.4742 29.833 18.2862C29.7441 18.211 29.6933 18.1985 29.6552 18.0606C29.5789 17.7598 29.49 17.7723 29.4646 17.4465C29.4392 17.2083 29.3757 17.3211 29.3249 17.1707C29.3122 17.1081 29.3249 17.0955 29.2994 17.0203L29.1216 16.5566L29.1343 16.5441L29.2486 16.4438C29.2613 16.5441 29.3122 16.6193 29.363 16.707C29.4011 16.7947 29.4392 16.8699 29.4773 16.9577C29.5281 17.0579 29.4773 16.9827 29.5535 17.0579C29.6552 17.1707 29.6043 17.3462 29.6806 17.4841C29.7441 17.6219 29.7695 17.4841 29.8457 17.6846C29.8965 17.835 29.8838 17.7974 29.9601 17.9227C30.0617 18.0982 30.0109 18.3238 30.0744 18.5243C30.2904 18.5369 30.5571 18.2987 30.7731 18.211C30.9764 18.1233 30.7985 18.1358 30.9383 18.0481C31.0145 17.9979 31.1288 17.9979 31.3194 17.7723C31.3829 17.6846 31.3702 17.647 31.421 17.5467C31.5226 17.3211 31.6878 17.271 31.3702 17.0955C31.2304 17.0203 31.2558 16.9702 31.2431 16.7697C31.1796 16.8323 31.1288 16.9201 31.078 17.0203L30.8239 17.0078L30.8112 16.7947C30.735 16.8198 30.7985 16.7947 30.7477 16.8449C30.6969 16.895 30.7604 16.8699 30.6969 16.895C30.6461 16.707 30.7223 16.7822 30.608 16.6318C30.5444 16.5441 30.4936 16.4313 30.4809 16.2934C30.5698 16.2683 30.5317 16.2809 30.6207 16.2307C30.735 16.3561 30.7477 16.4563 30.8747 16.5817C31.1288 16.8198 31.0399 16.6945 31.2686 16.6569C31.4464 16.9075 31.1923 16.8323 31.637 16.9075C31.8148 16.9326 32.0308 16.9075 32.1705 16.8699C32.1832 17.0203 32.2341 17.0203 32.323 17.1206L32.3357 17.1331L32.5008 17.2459C32.4119 17.3211 32.45 17.2459 32.4119 17.3462C32.4754 17.4089 32.5771 17.5467 32.6533 17.4339C32.6914 17.3838 32.6533 17.4214 32.6787 17.3713L32.6914 17.3211C32.6914 17.3086 32.6914 17.3086 32.7041 17.2961L32.7295 17.5467C32.7168 17.7974 32.7803 18.0355 32.8565 18.2611C32.9201 18.4617 33.0344 18.9881 33.1487 19.1009C33.225 19.0758 33.2885 19.0131 33.3139 18.9505C33.4028 18.6747 33.4155 18.4491 33.4282 18.1609C33.6315 18.0105 33.7585 17.7598 33.9618 17.6094C34.1015 17.5091 34.0253 17.4715 34.1269 17.3713C34.2159 17.3462 34.2667 17.4089 34.3683 17.3462C34.4699 17.2835 34.4191 17.1958 34.3683 17.1081C34.4699 17.1582 34.4318 17.1457 34.4826 17.2459C34.4826 17.2585 34.4954 17.2585 34.4954 17.271C34.5462 17.4089 34.5335 17.4841 34.6097 17.6094C34.6097 17.6094 34.6224 17.6219 34.6224 17.6345C34.6224 17.6345 34.6351 17.647 34.6351 17.6595C34.6859 17.7598 34.7113 17.835 34.724 17.9979C34.7367 18.1859 34.8002 18.2361 34.9146 18.0731C34.9527 18.023 34.94 18.0606 34.9527 17.9854C34.9527 17.9854 34.9654 17.9979 34.9654 18.0105C34.9654 18.023 34.9781 18.023 34.9781 18.0355C35.0416 18.1859 35.0797 18.399 35.1051 18.5494C35.1432 18.7374 35.0797 19.0507 35.1051 19.1134C35.2576 19.4393 35.1814 19.2011 35.2957 19.6147C35.3338 19.7275 35.3973 19.8529 35.499 19.9281C35.5879 20.0033 35.4863 19.9657 35.6133 19.9782C35.6514 19.8153 35.5752 19.5521 35.4736 19.4142C35.3846 19.3014 35.3846 19.3515 35.3338 19.2889C35.2576 19.2011 35.3084 19.2262 35.2703 19.1134C35.1814 18.8753 35.1433 19.1635 35.2703 18.4742C35.3338 18.4993 35.3084 18.5118 35.3719 18.5619L35.41 18.587C35.499 18.6497 35.5371 18.775 35.626 18.8627L35.6641 18.8878C35.7276 18.9505 35.6641 18.8627 35.7149 18.9505L35.753 19.0633C35.9055 18.9129 36.1215 18.7374 36.1215 18.4993C36.1215 18.1233 35.6641 17.9102 35.8293 17.6094C35.8928 17.4966 35.9563 17.4339 36.0833 17.4214C36.1977 17.5342 36.0833 17.4715 36.1723 17.5969C36.1723 17.5843 36.1723 17.5718 36.185 17.5718C36.185 17.5718 36.1723 17.4715 36.3374 17.4089L36.528 17.3211C36.5915 17.3211 36.6296 17.3462 36.8075 17.1958C36.8837 17.1206 36.8837 17.083 36.9472 17.0078L37.214 16.4814C37.2267 16.4438 37.2648 16.4313 37.2267 16.3561C37.2013 16.3059 37.1632 16.3185 37.1124 16.2809L37.2267 16.1931C37.1759 16.1179 37.2013 16.1555 37.1505 16.1179V16.0553C37.1505 16.0553 37.1632 16.0553 37.1759 16.0553C37.1759 16.0553 37.1886 16.0553 37.2013 16.0553C37.2013 16.0553 37.214 16.0553 37.2267 16.0553C37.1632 15.955 37.1759 15.9299 37.1378 15.8422C37.0615 15.6417 36.9599 15.6793 37.1378 15.4662C37.2521 15.3283 37.2013 15.4662 37.3156 15.3409C37.214 15.2657 37.1632 15.2406 37.0488 15.3283C37.0107 15.2782 37.0234 15.2907 36.9726 15.2281C36.8964 15.1403 36.9472 15.2782 36.8964 15.1278C36.8964 15.0526 36.998 15.0275 37.0742 14.9649C37.1759 14.8646 37.1378 14.8145 37.2902 14.8395C37.3156 15.0025 37.3029 14.8395 37.2775 14.9398C37.2648 14.9899 37.2521 15.0025 37.2394 15.0902C37.3029 15.0526 37.5824 14.827 37.6078 15.0651C37.6332 15.2406 37.6078 15.0651 37.557 15.2155C37.6713 15.2907 37.6205 15.2155 37.7349 15.2782C37.7349 15.4286 37.684 15.5915 37.7349 15.7043C37.8619 15.6918 37.9889 15.579 37.9889 15.4035C37.9762 15.2155 37.8619 15.1779 37.8238 15.015C37.9 14.9022 37.9254 14.9398 38.0016 14.7643C38.0652 14.6139 38.0906 14.639 38.1922 14.5011C38.2684 14.5262 38.3446 14.5889 38.4463 14.5137C38.5225 14.4635 38.5352 14.3758 38.586 14.2881L38.8655 13.8369C38.9163 13.7366 38.9671 13.699 38.9798 13.5862C39.0052 13.4483 38.9671 13.3982 39.018 13.2729C39.0688 13.135 39.0942 13.0097 39.018 12.9094C38.9798 12.8718 38.9544 12.8467 38.929 12.8217C38.8274 12.8467 38.8147 12.8843 38.7385 12.8467C38.7385 12.8467 38.7258 12.8467 38.7258 12.8342L38.5352 12.6963C38.5606 12.6587 38.5479 12.6713 38.5987 12.6211C38.6368 12.5835 38.6368 12.5835 38.6876 12.5585C38.7639 12.4958 38.7766 12.4958 38.8401 12.4081L39.1196 12.0822C39.2593 11.9443 39.3737 11.9819 39.5769 11.9945C39.6531 11.9945 39.704 12.007 39.7675 11.9819L40.0216 11.9443C40.0978 12.1198 39.9707 11.9193 40.047 12.0446C40.1232 12.0446 40.1232 12.0571 40.1867 12.0446L40.2629 12.0195C40.3265 11.9945 40.2883 12.0195 40.3265 11.9945C40.3392 11.9067 40.1613 11.9945 40.4916 11.6561C40.5424 11.6059 40.6313 11.5683 40.6949 11.6059C40.7965 11.6561 40.6695 11.6435 40.7711 11.819C40.8092 11.7689 40.8473 11.7187 40.8981 11.6561C41.076 11.7062 40.8219 11.7563 41.0506 11.7563L41.203 11.7313C41.3301 11.7062 41.292 11.5182 41.5333 11.7313L41.7239 11.5433C41.889 11.3803 41.9398 11.4305 42.0923 11.3302L42.1812 11.255C42.232 11.3427 42.1812 11.3051 42.3337 11.3427L42.2956 11.1422C42.2829 11.1046 42.2829 11.1046 42.2702 11.0795C42.2066 10.8665 42.1304 11.0169 42.105 10.8539C42.232 10.9291 42.2956 10.9041 42.4226 10.8414C42.4353 10.6785 42.3718 10.7537 42.4353 10.6409C42.5623 10.6785 42.448 10.6033 42.5242 10.7787C42.7275 10.8038 42.6513 10.7537 42.7783 10.8539C42.8418 10.9041 42.9181 10.9542 43.0324 10.9667C43.0959 10.8414 42.9943 10.8915 43.1213 10.7913C43.1721 10.7411 43.2356 10.7286 43.2992 10.6785C43.1086 10.4779 43.1594 10.5782 42.9053 10.503L42.8545 10.6158C42.8037 10.4654 42.8418 10.4779 42.7148 10.3902C42.4988 10.2398 42.448 10.1521 42.1177 10.0518C42.0542 10.0267 41.5841 9.98913 41.546 10.0017C41.5206 10.0142 41.4825 9.95153 41.4952 10.0769C41.4952 10.1145 41.6731 10.315 41.3428 10.1771C41.3174 10.0267 41.4952 10.1897 41.3428 10.0393C41.2157 10.0769 41.3301 10.0769 41.1776 10.127C41.0506 10.1646 41.076 10.1145 40.9616 10.0894C40.9235 10.1395 40.9235 10.1646 40.8854 10.2147C40.8219 10.3025 40.8346 10.2273 40.7965 10.3526C40.7584 10.2398 40.7457 10.2774 40.7076 10.1897L40.6949 10.1395C40.5551 9.751 40.3392 10.127 40.0089 9.91393C39.9453 9.87633 39.9072 9.88886 39.8437 9.8262C39.7421 9.7134 39.8945 9.80113 39.7802 9.72593C39.5007 9.62566 39.6404 9.7886 39.4626 9.77606C39.4626 9.77606 39.488 9.73846 39.5007 9.72593L39.5134 9.7134L39.5642 9.6758C39.3228 9.62566 39.1958 9.563 38.9925 9.62566C38.9417 9.6382 38.9798 9.6382 38.8909 9.65073C38.9036 9.751 38.929 9.73846 38.9036 9.83873L38.7385 9.87633C38.6622 9.87633 38.6241 9.83873 38.5479 9.83873C38.3955 9.83873 38.5098 9.87633 38.37 9.8638C38.2684 9.85126 38.3065 9.8262 38.2176 9.77606C38.1668 9.8638 38.1795 9.91393 38.0906 9.98913C37.8492 9.88886 38.0016 9.751 37.6967 9.7134C37.6332 9.70086 37.557 9.6758 37.4808 9.65073C37.6459 9.61313 37.5443 9.7134 37.6332 9.563C37.6967 9.6758 37.6205 9.61313 37.7221 9.65073L37.8492 9.563L37.8365 9.55046L37.8238 9.53793L37.4045 9.4126L37.3156 9.53793C37.3918 9.6006 37.3791 9.58806 37.4681 9.61313C37.0361 9.57553 37.0615 9.50033 36.8456 9.4502C36.8329 9.4502 36.6931 9.42513 36.6931 9.42513C36.6296 9.4126 36.5915 9.4126 36.5153 9.46273L36.4645 9.51286C36.4136 9.4126 36.5407 9.375 36.3628 9.38753C36.1596 9.4126 35.9817 9.5254 35.7784 9.55046C35.9182 9.51286 36.1342 9.2998 36.2993 9.2246L36.3374 9.19953L36.3501 9.187L36.4772 9.1118C36.4772 8.999 36.4899 8.97393 36.4136 8.91126C36.2104 8.7734 36.0833 8.83606 35.8801 8.86113C35.8547 8.811 35.8674 8.82353 35.8928 8.7734L35.6768 8.74833C35.8293 8.6982 35.7276 8.76086 35.7657 8.67313C35.6514 8.6606 35.5752 8.623 35.4608 8.67313C35.3846 8.67313 35.283 8.72326 35.3211 8.82353ZM16.7607 8.98646C16.8369 9.12433 16.8242 8.97393 16.8496 9.13686C16.6717 9.12433 16.6972 9.02406 16.6463 9.16193C16.7607 9.24966 16.748 9.19953 16.9131 9.34993L17.0147 9.43766C17.2053 9.31233 17.1926 9.40006 17.2307 9.17446L17.218 9.16193L17.1672 9.12433C17.1418 9.1118 17.1291 9.09926 17.1037 9.0742C17.1672 9.02406 17.1672 9.01153 17.1799 8.93633C17.1037 8.93633 17.0402 8.94886 16.9639 8.94886C16.7861 8.94886 16.8496 8.97393 16.7607 8.98646ZM27.4574 8.3598C27.4193 8.22193 27.3939 8.27206 27.4701 8.19686C27.6098 8.2094 27.6098 8.23446 27.7115 8.3222C27.8385 8.42246 27.8639 8.38486 27.9401 8.44753C27.7242 8.56033 27.8512 8.37233 27.6479 8.6982L27.5209 8.87366C27.4193 8.83606 27.4701 8.8486 27.432 8.82353L27.4193 8.811L27.4066 8.79846C27.2922 8.72326 27.3685 8.811 27.2922 8.71073C27.3303 8.68566 27.2795 8.71073 27.3557 8.6982C27.4066 8.68566 27.3812 8.6982 27.432 8.68566L27.5336 8.63553C27.432 8.64806 27.3685 8.68566 27.2668 8.623C27.3557 8.52273 27.3303 8.59793 27.4701 8.53526C27.5209 8.5102 27.4955 8.52273 27.5209 8.49766C27.2541 8.38486 27.4066 8.63553 27.1017 8.4726L27.089 8.5478C27.0508 8.52273 27.0254 8.5102 26.9873 8.4726L27.0127 8.44753L27.0381 8.42246C27.089 8.38486 27.0254 8.42246 27.089 8.38486C27.0254 8.34726 26.9873 8.3598 26.9619 8.27206L27.1779 8.23446L27.1906 8.247L27.2287 8.3222L27.3303 8.23446C27.3939 8.29713 27.3939 8.30966 27.4574 8.3598ZM24.1162 10.9918L24.256 10.9041H24.2687C24.3195 10.8915 24.2433 10.9041 24.3322 10.8915C24.3449 10.8915 24.3449 10.8915 24.3576 10.8915C24.3703 10.8915 24.3703 10.8915 24.383 10.8915L24.5101 10.8665C24.6879 10.8289 24.7641 10.9542 24.815 11.1171C24.726 11.1798 24.7514 11.1923 24.6625 11.255C24.2179 11.5307 24.2052 11.3051 23.9892 11.2926C24.0273 11.2425 24.0654 11.2801 24.0146 11.1798C23.9765 11.0921 24.0527 11.1422 23.9003 11.1297C23.9384 11.1171 24.0146 11.0921 23.9765 11.0419C23.9384 11.0043 23.9765 11.0419 23.913 11.0043C23.8495 10.9793 23.8876 11.0419 23.8749 10.9918C23.8749 10.9793 23.8622 10.9918 23.8495 10.9793C23.9003 10.9041 23.9257 10.879 24.0273 10.8665L24.1162 10.9918ZM18.247 7.78326C18.1581 7.77073 18.1454 7.78326 18.0946 7.73313L18.0438 7.67046C18.0057 7.62033 18.0184 7.6454 17.9802 7.6078C18.0311 7.55766 18.0184 7.58273 18.0438 7.54513C18.0946 7.495 18.0819 7.5326 18.0946 7.4574L17.8913 7.495C17.9548 7.63286 17.9802 7.4574 17.9167 7.63286C17.7897 7.52006 17.8151 7.63286 17.6881 7.495C17.5864 7.39473 17.6499 7.39473 17.4594 7.35713C17.4467 7.36966 17.4213 7.3822 17.3959 7.4198L17.1926 7.6078L17.2561 7.65793C17.2561 7.65793 17.2434 7.67046 17.2307 7.67046C17.2307 7.67046 17.218 7.683 17.2053 7.683L17.3196 7.78326C17.4086 7.82086 17.434 7.7958 17.5229 7.7958C17.5102 7.80833 17.5102 7.7958 17.4975 7.82086C17.4848 7.88353 17.4848 7.7958 17.4086 7.92113C17.6118 7.95873 17.4721 8.0966 17.8151 8.04646L17.9167 7.99633C17.9802 7.93366 17.9294 7.9462 18.0565 7.9086C18.2216 7.85846 18.2216 7.85846 18.247 7.78326C18.3741 7.871 18.2724 7.871 18.5011 7.871C18.4757 7.9462 18.5773 7.93366 18.3868 7.92113C18.3487 7.92113 18.1327 7.80833 18.0565 8.07153C18.1581 8.0966 18.247 8.059 18.2978 8.00886C18.3233 8.15926 18.336 8.08406 18.247 8.14673C18.2851 8.18433 18.2597 8.18433 18.3741 8.19686C18.2597 8.19686 18.3106 8.22193 18.2089 8.18433C18.1073 8.14673 18.1581 8.14673 18.0057 8.15926C18.0438 8.25953 17.9802 8.15926 18.0819 8.27206C17.9675 8.29713 17.9294 8.2846 17.8659 8.37233C17.904 8.44753 17.8786 8.40993 17.9548 8.44753C18.0692 8.5102 17.9548 8.4726 18.0819 8.44753L18.4757 8.40993C18.6663 8.40993 18.5519 8.42246 18.7044 8.48513L18.9203 8.3598L18.7679 8.25953L18.8822 8.18433C18.9203 8.1342 18.933 8.1718 18.8949 8.10913C19.0601 8.10913 19.1744 8.07153 19.1744 7.89606C19.0982 7.89606 19.1363 7.9086 19.0728 7.9086L18.9712 7.88353C19.0347 7.80833 18.9966 7.82086 19.0855 7.7958C19.1363 7.78326 19.2252 7.78326 19.3015 7.77073C19.3396 7.6454 19.1871 7.89606 19.276 7.70806C19.5555 7.7206 19.5428 7.59526 19.8858 7.46993C19.9621 7.44486 20.051 7.4198 20.1145 7.3822C20.0383 7.31953 19.8985 7.3446 19.7461 7.3446V7.31953C20.0002 7.31953 20.3178 7.33206 20.4194 7.16913C20.3686 7.14406 20.3686 7.1566 20.3178 7.13153C20.3178 7.13153 20.3051 7.119 20.2924 7.119L19.4158 7.01873C19.276 7.03126 19.1998 7.06886 18.9203 7.05633C18.6154 7.0438 18.6027 7.05633 18.4122 7.1942C18.0692 7.0814 18.2089 7.1942 18.0438 7.2318C17.9294 7.25686 17.7008 7.24433 17.5991 7.307C17.6372 7.33206 17.5991 7.307 17.6499 7.31953L17.7135 7.33206H17.7262L17.8786 7.3446C17.5102 7.55766 18.0057 7.40726 18.1835 7.4198C18.1327 7.50753 18.1327 7.4574 18.0819 7.54513C18.8568 7.5702 18.6663 7.43233 18.8568 7.39473C18.8314 7.44486 18.8441 7.43233 18.8187 7.50753C18.7425 7.55766 18.59 7.55766 18.463 7.58273L18.4376 7.65793C18.3487 7.62033 18.2216 7.58273 18.0946 7.59526C18.1454 7.80833 18.12 7.62033 18.247 7.78326ZM35.753 20.8806C35.499 20.7803 35.3084 20.2163 35.283 20.1913C35.1051 19.9531 35.3211 20.1286 35.0924 19.8654L35.0797 19.8529L35.0162 19.7275C34.9527 19.6147 34.8765 19.6523 34.8511 19.4769L35.0924 19.5145C35.1687 19.7025 35.1305 19.6398 35.2703 19.7651C35.6768 20.1411 35.5498 20.1662 35.6895 20.3166C35.7657 20.4043 35.7403 20.4043 35.7657 20.4419C35.7784 20.4419 35.8166 20.4419 35.8293 20.3667C35.8293 20.3542 35.8293 20.3542 35.8293 20.3542C35.8928 20.4294 35.9182 20.4294 35.8801 20.5297C35.753 20.7929 35.8928 20.655 35.753 20.8806ZM25.4375 12.3579C25.6915 12.1073 25.5264 12.1574 25.7296 12.1574C25.7678 12.2201 25.7551 12.2326 25.7042 12.2827L25.8821 12.3579L25.7932 12.571L25.9964 12.8467C26.0472 12.9219 26.0345 12.9595 26.0726 13.0097C26.1489 13.135 26.0981 13.0222 26.1997 13.1225C26.187 13.1977 26.1616 13.2102 26.1489 13.2854C26.1362 13.4358 26.2378 13.3105 26.1362 13.3857C26.0599 13.4358 25.8948 13.4233 25.8186 13.4483L25.7678 13.4609C25.7551 13.4609 25.7551 13.4609 25.7423 13.4734L25.5264 13.5361C25.5772 13.4609 25.6407 13.3731 25.6915 13.323C25.6534 13.2854 25.6788 13.3105 25.628 13.2854C25.628 13.2854 25.5899 13.2729 25.5645 13.2603C25.6407 13.0849 25.6788 13.2979 25.6026 13.0598C25.6407 13.0097 25.628 13.0473 25.6661 13.0222C25.7423 12.9721 25.7551 13.0347 25.7423 12.8969C25.7423 12.7465 25.6788 12.7841 25.6153 12.7841L25.6026 12.7339C25.6026 12.7339 25.6026 12.7214 25.5899 12.7089C25.5899 12.7089 25.5772 12.6963 25.5772 12.6838L25.5518 12.6462C25.501 12.571 25.5264 12.7214 25.4883 12.5334C25.4629 12.3454 25.6153 12.4206 25.4375 12.3579ZM40.4662 13.2729L40.4281 13.1601C40.3773 12.8969 40.301 12.5835 40.4027 12.3955C40.517 12.2075 40.4027 12.3329 40.4662 12.2451C40.517 12.1699 40.5551 12.2075 40.6186 12.1449C40.7076 12.0571 40.6441 12.0697 40.7203 11.9819C40.7838 11.9067 40.7711 11.9694 40.8473 11.8441L40.9108 11.9694C40.9744 11.8817 40.9108 11.9067 41.0379 11.8942C40.9871 11.9945 40.9871 11.9569 40.9489 11.9945L40.9235 12.0321C40.8092 12.2075 40.8473 12.2201 40.8854 12.3329C40.9362 12.4958 40.9235 12.3955 40.86 12.5334C40.7965 12.6587 40.8346 12.6587 40.86 12.7841C40.6568 12.8467 40.7838 12.7966 40.6441 13.0097C40.5678 13.1225 40.6186 13.0849 40.5805 13.1851C40.5424 13.2729 40.5424 13.2478 40.4662 13.2729ZM30.7604 22.1214C30.6842 22.2718 30.7096 22.0462 30.6842 22.2843L30.5571 22.9862C30.5444 23.0238 30.4809 23.6254 30.2268 23.4249C30.1125 23.3371 30.1125 22.9737 30.176 22.8233C30.2776 22.5851 30.0109 22.3345 30.3158 22.2091C30.4936 22.1339 30.4301 22.159 30.6207 21.8833C30.6334 21.8707 30.6461 21.8331 30.6588 21.8081C30.7477 21.9083 30.735 22.0086 30.7604 22.1214ZM36.2993 19.9531C36.3247 19.7777 36.2866 19.8403 36.4009 19.7526L36.6931 19.4393C36.7566 19.3641 36.7439 19.3265 36.8202 19.2638L36.9218 19.3766C36.9599 19.4142 36.9726 19.4017 37.0234 19.4769C36.8964 19.6398 36.8075 19.8278 37.0107 19.9782L36.9726 20.0033L36.9599 20.0158C36.871 20.1035 36.9091 20.1411 36.871 20.2289C36.8329 20.3291 36.871 20.2038 36.8202 20.3041C36.7312 20.4795 36.871 20.4921 36.6804 20.6425C36.5661 20.5923 36.6296 20.5422 36.4391 20.5422L36.2104 20.5046C36.2104 20.4043 36.2104 20.3542 36.1723 20.2665C36.1088 20.1411 35.9944 19.8027 36.2993 19.9531ZM38.1541 20.3166L38.3065 20.2289C38.5606 20.4795 38.3446 20.3041 38.4971 20.5798L38.5098 20.6049L38.5225 20.6174C38.6622 20.5171 38.586 20.467 38.7639 20.3793L39.272 20.6174C39.3355 20.655 39.4245 20.7177 39.4626 20.7803C39.5515 20.9433 39.3864 20.8305 39.6658 20.9307L39.6023 21.0811C39.6658 21.1313 39.6531 21.1187 39.704 21.1939C39.8183 21.3694 39.7421 21.2566 39.8691 21.3945C40.0343 21.5699 39.704 21.4195 39.6913 21.4195C39.5388 21.3318 39.5515 21.1187 39.3483 21.1187C39.1704 21.1187 39.3864 21.1438 39.1958 21.219C39.2466 21.2566 39.2085 21.2065 39.2466 21.2566C39.272 21.3067 39.2593 21.2566 39.2593 21.2942C39.1196 21.3819 39.0052 21.2817 38.9798 21.1689C38.8782 21.1814 38.8401 21.1939 38.7639 21.2065C38.7893 21.0811 38.8528 21.1187 38.8655 21.0937C38.8655 21.0811 38.8782 21.0937 38.8909 21.0811C38.7004 20.7678 38.9163 20.8806 38.5606 20.7302C38.459 20.6926 38.5606 20.7302 38.4844 20.6926C38.3573 20.6174 38.4463 20.655 38.3319 20.6926C38.3192 20.5046 38.3446 20.6425 38.2557 20.5171C38.3319 20.5046 38.3065 20.5171 38.3573 20.4921C38.4082 20.4795 38.3955 20.4795 38.4209 20.4545H38.2303C38.2049 20.3542 38.1922 20.4169 38.1541 20.3166ZM14.6137 8.83606C15.1854 8.78593 14.944 8.8862 15.1346 8.8862C15.4268 8.8862 15.2616 8.8862 15.4903 9.0366C15.6554 9.1494 15.5919 9.21206 15.6173 9.1494C15.6173 9.1494 15.63 9.16193 15.63 9.17446C15.6554 9.12433 15.6681 9.0742 15.7825 9.13686C15.846 9.17446 15.8333 9.24966 15.8333 9.24966V9.2622C15.9984 9.187 15.8968 9.187 15.9222 9.1118C16.2017 9.1494 15.973 9.2998 16.2017 9.375C16.189 9.23713 16.1255 9.187 16.189 9.0742L16.2779 8.97393C16.5066 8.8486 16.3796 9.1118 16.3796 9.1494C16.3796 9.16193 16.3923 9.21206 16.3923 9.2246L16.4685 9.42513C16.532 9.58806 16.4939 9.4502 16.748 9.6758L16.6972 9.68833H16.6844C16.532 9.72593 16.7607 9.6382 16.6336 9.70086L16.659 9.76353C16.6844 9.8262 16.659 9.73846 16.6717 9.80113C16.6844 9.87633 16.6844 9.8262 16.6717 9.88886C16.532 9.91393 16.3541 9.83873 16.2779 9.77606C16.1255 9.96406 15.9222 9.939 15.6554 9.939C15.5157 9.65073 15.4268 9.92646 15.2997 9.66326C15.4268 9.58806 15.6173 9.61313 15.7698 9.58806C15.6427 9.50033 15.4141 9.57553 15.2235 9.4878C15.2235 9.43766 15.1727 9.4878 15.287 9.40006L15.1346 9.32486C15.2362 9.04913 15.2616 9.1494 15.4141 9.02406C15.2616 9.04913 15.16 9.12433 15.071 9.2246L14.944 9.375C14.8932 9.40006 14.9313 9.375 14.8805 9.40006L14.7407 9.4502C14.5883 9.28726 14.7535 9.36246 14.4994 9.2622C14.5248 9.19953 14.5375 9.19953 14.5629 9.1494L14.5883 9.08673C14.6899 8.89873 14.6645 9.01153 14.6137 8.83606ZM17.8024 9.40006L17.9421 9.43766C17.8913 9.57553 18.0057 9.32486 17.904 9.47526C17.904 9.47526 17.7897 9.57553 17.9802 9.6006C18.1454 9.62566 17.9802 9.563 18.1073 9.61313C18.1454 9.62566 18.12 9.66326 18.247 9.66326C18.336 9.66326 18.2597 9.65073 18.3868 9.66326C18.4884 9.6758 18.463 9.68833 18.5392 9.6758C18.59 9.66326 18.5138 9.65073 18.6536 9.66326C18.7298 9.6758 18.7679 9.68833 18.806 9.68833C18.8314 9.55046 18.8187 9.70086 18.7679 9.563L19.0474 9.76353L19.0601 9.77606L19.0347 9.92646C19.2506 9.88886 19.2633 9.9014 19.365 10.1145C19.3904 10.1646 19.365 10.1019 19.3904 10.1771C19.3142 10.3025 19.2633 10.2649 19.2506 10.4027C19.2379 10.4779 19.276 10.4905 19.149 10.5281C19.022 10.5657 19.149 10.5281 19.0474 10.5281C18.933 10.5281 18.8441 10.5531 18.9076 10.6785C19.022 10.7411 18.9966 10.691 19.0982 10.6785C19.3015 10.6659 19.1363 10.6659 19.276 10.7286L19.3015 10.6534C19.4412 10.8665 19.4031 10.7537 19.4412 10.8414C19.4793 10.9291 19.3777 10.879 19.5809 10.9667C19.7461 11.0294 19.6699 11.0545 19.8223 11.0921C19.8731 11.1046 19.9112 11.1046 19.9494 11.1171C19.9621 10.9918 19.8477 10.9793 19.7969 10.8414C19.9367 10.8414 19.9875 10.9793 20.1145 11.0043C20.051 10.503 20.2415 10.8414 19.7842 10.4027C19.8477 10.3777 19.8477 10.3902 19.8731 10.3777C19.8858 10.3651 19.8096 10.3777 19.9367 10.315L20.0637 10.3902C20.1272 10.4529 20.1018 10.4278 20.1272 10.5657C20.267 10.5281 20.1399 10.5531 20.267 10.6033L20.2415 10.4278C20.4067 10.4905 20.3178 10.4403 20.3686 10.3401C20.394 10.3025 20.4067 10.3275 20.4575 10.2398C20.3813 10.1771 20.2924 10.1521 20.1907 10.1771L20.1526 10.0017C20.0637 10.0267 20.1272 10.0142 20.0637 10.0142C19.9494 10.0142 19.8223 9.91393 19.7588 9.85126C19.7969 9.751 19.7969 9.83873 19.8604 9.72593L19.6953 9.66326L19.708 9.65073L19.7334 9.61313C19.7715 9.55046 19.7715 9.6006 19.7842 9.51286C19.6318 9.46273 19.6191 9.5254 19.5301 9.43766C19.4158 9.31233 19.5682 9.4878 19.5047 9.40006C19.365 9.19953 19.5809 9.46273 19.4793 9.3374L19.3142 9.40006C19.3015 9.375 19.2506 9.2998 19.2379 9.27473C19.1744 9.19953 19.0982 9.19953 19.0601 9.13686C18.9712 8.97393 18.9966 8.97393 18.6409 8.98646C18.6409 8.98646 18.3614 8.93633 18.2851 9.06166C18.2089 9.17446 18.336 9.08673 18.2089 9.3374C18.0819 8.98646 18.1073 9.13686 18.2851 8.9614C17.9294 8.8486 17.777 9.16193 17.8024 9.40006ZM39.0307 22.3846C39.2212 22.1966 39.0561 21.8206 39.2085 21.5699L39.2593 21.6451C39.2593 21.6577 39.2593 21.6577 39.272 21.6702L39.3483 21.971C39.4118 21.9961 39.4372 21.9334 39.4753 22.0713C39.5769 22.3971 39.4753 22.4723 39.7294 22.6603C39.8183 22.7355 39.8056 22.7355 39.8437 22.8483C39.8564 22.8985 39.8564 22.911 39.8945 22.9486L39.9453 23.0113C40.0216 23.1491 39.9199 23.0614 40.0089 23.1617C40.0724 23.2243 40.0851 23.2118 40.1486 23.2995C40.1994 23.3747 40.2375 23.6505 40.2502 23.7633C40.2883 24.1643 39.9834 24.5153 39.9199 25.0667C39.6658 25.1043 39.7675 25.1294 39.5896 25.2422C39.5388 25.1921 39.5134 25.167 39.4753 25.1169C39.3737 25.1795 39.4499 25.1545 39.3483 25.2297C39.3101 25.2171 39.1704 25.167 39.1196 25.1419C38.929 25.0417 39.0942 25.0417 38.9036 24.7534L38.8147 24.4275L38.5987 24.6406C38.5987 24.6406 38.586 24.6281 38.586 24.6155L38.5352 24.5153C38.3955 24.2521 38.4336 24.3398 38.2811 24.2771C38.1922 24.2395 38.243 24.1769 37.9381 24.3022C37.8238 24.3398 37.8746 24.3273 37.7476 24.3523C37.4808 24.4025 37.6205 24.4902 37.4681 24.5529C37.3791 24.5529 37.2775 24.5403 37.214 24.5654C37.0488 24.6281 37.0234 24.8787 36.7058 24.5779C36.7185 24.5403 36.7948 24.5027 36.7694 24.2771C36.7312 24.0265 36.6423 23.7006 36.528 23.4625C36.5788 23.4374 36.5915 23.4875 36.6423 23.4625C36.4899 23.1491 36.6042 22.8859 36.9345 22.7731L37.1378 22.6854C37.2648 22.6353 37.2902 22.6227 37.341 22.4473C37.4173 22.2342 37.3918 22.2091 37.4808 22.347C37.5062 22.1715 37.6586 21.971 37.8238 21.8958C37.8873 21.9835 37.9 21.9459 37.9127 22.0838C38.0016 22.0337 37.9 22.0587 38.0525 22.0337C38.0525 21.9209 38.0397 21.9209 38.116 21.783C38.2049 21.6326 38.1668 21.7078 38.3065 21.6953C38.3065 21.6702 38.3065 21.6326 38.3065 21.6326C38.3065 21.6075 38.3065 21.6075 38.3192 21.5825C38.3955 21.6201 38.4463 21.6827 38.5352 21.6953C38.6368 21.7078 38.6368 21.6451 38.7131 21.7078C38.6749 21.8457 38.6241 21.8331 38.5987 22.0337C38.6622 22.0963 38.7385 22.159 38.802 22.2217C38.9798 22.3971 38.929 22.3846 39.0307 22.3846ZM22.541 6.91846C22.7442 6.8558 23.4556 6.84326 23.6843 6.931C23.481 7.03126 23.1507 6.94353 22.9602 7.0438C23.227 7.03126 23.8368 6.931 24.0908 7.10646C23.8749 7.29446 23.354 7.13153 23.0618 7.28193L23.7097 7.2318C23.697 7.28193 23.6716 7.29446 23.6335 7.33206C23.6335 7.33206 23.6208 7.35713 23.6081 7.3446C23.6081 7.3446 23.5954 7.35713 23.5827 7.35713C23.7859 7.31953 23.8114 7.1942 24.0273 7.24433C24.0273 7.36966 23.9257 7.3822 23.8749 7.495C24.0527 7.43233 24.0654 7.36966 24.1798 7.307C24.2687 7.307 24.2052 7.3446 24.3195 7.33206C24.6244 7.28193 24.3322 7.1942 24.9293 7.31953C24.815 7.4198 24.6625 7.50753 24.472 7.50753C24.5736 7.54513 24.5482 7.52006 24.4974 7.6078C24.1925 7.62033 24.2814 7.52006 24.2179 7.6454L24.3195 7.65793C24.4084 7.67046 24.3449 7.63286 24.4338 7.683L24.4211 7.69553L24.4084 7.70806L24.383 7.7206C24.3703 7.7206 24.3576 7.70806 24.3068 7.74566C24.2179 7.7958 24.2814 7.78326 24.2179 7.88353C24.1544 7.97126 24.1671 7.92113 24.1035 8.0214L24.0527 8.19686C24.1417 8.15926 24.0781 8.1342 24.1925 8.1342C24.2179 8.1342 24.2052 8.1342 24.2306 8.14673C24.2433 8.18433 24.1925 8.15926 24.1544 8.23446C24.2687 8.247 24.383 8.23446 24.3957 8.3598C24.256 8.34726 24.1544 8.29713 24.0527 8.40993C24.1162 8.49766 24.0908 8.44753 24.1925 8.48513L24.2306 8.5102C24.2687 8.53526 24.3195 8.56033 24.3449 8.623C24.2814 8.6982 24.2306 8.67313 24.1289 8.68566C24.1289 8.68566 24.0654 8.6982 24.0527 8.6982C24.2306 8.82353 24.2814 8.79846 24.3449 8.83606C23.9638 9.17446 23.9003 9.02406 23.8113 8.9614L23.5827 9.0742C23.6208 9.08673 23.6208 9.08673 23.6589 9.1118C23.7351 9.16193 23.7224 9.17446 23.7224 9.24966C23.7732 9.24966 23.7986 9.23713 23.8368 9.2622C23.9384 9.2998 23.9003 9.2998 23.9257 9.32486C24.04 9.46273 23.9384 9.34993 24.0781 9.43766L24.0527 9.61313C23.9003 9.55046 23.8749 9.61313 23.8113 9.53793C23.7859 9.51286 23.7986 9.51286 23.7732 9.47526L23.7478 9.43766C23.57 9.46273 23.7224 9.4502 23.6081 9.4878C23.5954 9.4878 23.5954 9.4878 23.5827 9.50033C23.481 9.5254 23.481 9.55046 23.4175 9.62566C23.5573 9.70086 23.4302 9.58806 23.5065 9.65073C23.5319 9.6758 23.5192 9.66326 23.5192 9.68833V9.7134C23.5827 9.66326 23.6081 9.62566 23.7097 9.6382L23.8241 9.66326C23.8495 9.6758 23.8749 9.6758 23.8876 9.68833L23.9257 9.7134C23.7605 9.80113 23.8495 9.751 23.7478 9.8638C23.6462 9.96406 23.227 10.0769 23.0999 10.0267C23.0745 10.1897 22.9221 10.2649 22.8459 10.4027C22.7061 10.4027 22.6934 10.4153 22.5918 10.3651C22.4901 10.4779 22.3377 10.5406 22.3123 10.7035V10.7537C22.2996 10.879 22.2488 10.9291 22.1471 10.9918C22.2361 11.1923 22.1344 11.1422 22.1344 11.3803L21.982 11.4179C21.9312 11.3553 21.8931 11.3302 21.8931 11.2425C21.766 11.3177 21.8931 11.2801 21.7533 11.3302L21.5628 11.1923C21.4865 11.0921 21.6009 11.2299 21.5246 11.1046C21.4992 11.067 21.5119 11.0921 21.4865 11.067L21.3976 10.9166C21.3722 10.8414 21.3722 10.8289 21.3976 10.7537L21.4103 10.7161C21.423 10.691 21.423 10.6534 21.423 10.6158C21.3341 10.6534 21.3468 10.6785 21.3087 10.7662L21.2833 10.691C21.207 10.4779 21.3341 10.8665 21.2706 10.6409C21.2325 10.5281 21.1943 10.5281 21.207 10.3902C21.2197 10.1145 21.1943 10.2022 21.1943 9.9766C21.3087 9.88886 21.3849 9.95153 21.3595 9.70086C21.2452 9.70086 21.2452 9.68833 21.1562 9.65073C21.0038 9.58806 21.0927 9.68833 21.0292 9.57553C21.1689 9.51286 21.1943 9.62566 21.3595 9.6382C21.3468 9.563 21.3595 9.6006 21.3087 9.5254C21.1943 9.38753 21.2452 9.5254 21.1816 9.3374C21.0673 9.375 21.08 9.42513 20.9657 9.42513C20.9276 9.34993 20.953 9.27473 20.953 9.2246V9.17446C20.9403 9.1118 20.953 9.13686 20.9403 9.12433C20.8894 8.86113 20.8132 8.82353 20.6735 8.63553C20.61 8.5478 20.7243 8.61046 20.5718 8.5478C20.3813 8.46006 20.2288 8.48513 20.0256 8.48513C20.0129 8.48513 20.0129 8.48513 20.0002 8.48513H19.9367C19.8096 8.49766 19.835 8.53526 19.6826 8.4726V8.46006V8.44753C19.6826 8.25953 19.7334 8.5102 19.6826 8.38486C19.6063 8.3598 19.5174 8.37233 19.492 8.29713C19.6445 8.29713 19.6191 8.27206 19.7588 8.2846C19.835 8.2846 19.8985 8.29713 19.9239 8.2094C19.7715 8.14673 19.3396 8.3222 19.3523 7.99633C19.4793 7.99633 19.5809 7.97126 19.6699 7.92113C19.7842 7.85846 19.9494 7.89606 20.0129 7.84593C20.1272 7.74566 19.9748 7.78326 20.1018 7.683C20.051 7.683 20.0002 7.69553 19.9621 7.69553L19.8477 7.6454C19.9112 7.58273 19.9875 7.5702 20.0764 7.52006C20.2161 7.44486 20.2034 7.46993 20.3813 7.46993C20.394 7.44486 20.4067 7.35713 20.4067 7.3446C20.4321 7.29446 20.3559 7.28193 20.4956 7.28193C20.7116 7.28193 20.6989 7.18166 21.0546 7.21926L21.1054 7.36966L21.2325 7.29446C21.3087 7.3446 21.3214 7.35713 21.4357 7.3446C21.4103 7.307 21.3976 7.2318 21.3849 7.18166C21.5501 7.18166 21.766 7.2318 21.8677 7.29446C21.8931 7.25686 21.8549 7.2694 21.8168 7.16913L22.0709 7.21926L21.9312 7.119C22.0582 7.119 22.1598 7.16913 22.2869 7.1566L22.325 7.14406C22.1725 7.03126 21.982 7.119 21.8422 7.01873C22.1852 6.9686 21.982 6.98113 22.2234 7.05633C22.2869 7.0814 22.3504 7.0814 22.4139 7.09393C22.6299 6.8934 22.5155 6.99366 22.541 6.91846ZM17.434 9.73846C17.2815 9.72593 17.2434 9.6758 17.218 9.55046L17.2053 9.46273C17.218 9.38753 17.2942 9.32486 17.3578 9.2998C17.5229 9.38753 17.4975 9.36246 17.561 9.50033C17.561 9.51286 17.5737 9.53793 17.5864 9.53793C17.6372 9.61313 17.5864 9.53793 17.6499 9.6006L17.5864 9.72593C17.6754 9.751 17.6627 9.73846 17.7262 9.80113L17.7897 9.92646C17.7897 9.92646 17.8024 9.939 17.8024 9.95153C17.8659 9.8638 17.8151 9.88886 17.8913 9.8262C18.1962 9.98913 17.8151 10.0142 18.0692 10.1646C18.1835 10.0894 18.0819 10.1771 18.1454 10.0518C18.1835 9.98913 18.1581 10.0267 18.1962 9.95153C18.2851 9.81366 18.2343 9.88886 18.2089 9.70086C18.3106 9.7134 18.5011 9.7134 18.5646 9.81366C18.7171 10.0894 18.3995 9.77606 18.5773 10.0769C18.6663 10.2273 18.5519 10.2398 18.4376 10.3025C18.3233 10.3651 18.2851 10.3401 18.1581 10.3025C18.1835 10.5406 18.0438 10.503 17.8659 10.4529C17.8913 10.4779 17.9167 10.503 17.9675 10.5281C18.0692 10.5907 18.0057 10.5155 18.0819 10.6033C18.0311 10.7161 18.0184 10.7161 17.9294 10.7411C17.7516 10.8038 17.8278 10.8539 17.7389 10.9542C17.6754 11.0169 17.6245 10.9918 17.561 11.0545L17.4721 11.2425C17.3832 11.4054 17.3959 11.4054 17.3832 11.6059L17.4467 11.631C17.4467 11.631 17.4594 11.631 17.4721 11.6435C17.5864 11.7062 17.5991 11.8065 17.5991 11.9318C17.9167 11.8691 17.904 11.9945 18.1327 12.1323C18.4503 12.3203 18.5392 12.0697 18.5392 12.5083C18.59 12.5459 18.6409 12.5459 18.679 12.5961C18.5773 12.6462 18.806 12.5459 18.6154 12.6086C18.6154 12.6086 18.6027 12.6086 18.59 12.6211L18.5519 12.6462C18.6281 12.7089 18.6663 12.8091 18.7425 12.8718C18.7933 12.8342 18.8187 12.8217 18.8695 12.7715C18.8695 12.6211 18.8314 12.4457 18.7933 12.3454C18.9076 12.2451 19.0347 12.2326 19.0601 12.0697C19.0982 11.819 18.9966 11.819 18.8949 11.6937C18.9457 11.4806 19.0093 11.5307 18.9712 11.3302C18.8695 10.8915 19.0093 11.0795 19.2379 11.0795C19.3142 11.0795 19.3269 11.0545 19.4031 11.0921C19.5428 11.1673 19.5174 11.2801 19.7207 11.2926C19.7207 11.5934 19.708 11.5683 19.8985 11.7438C19.9875 11.7187 20.0637 11.6686 20.0891 11.5934C20.1018 11.5433 20.1526 11.443 20.2034 11.3929C20.2288 11.4555 20.2034 11.4054 20.2288 11.4681L20.4575 11.8942C20.5083 12.0822 20.3813 11.9193 20.4575 12.0571C20.5337 12.195 20.4829 12.0571 20.5591 12.1574C20.6481 12.2577 20.5464 12.1825 20.5973 12.2577C20.6862 12.383 20.7116 12.2075 20.8386 12.3579C20.6989 12.5209 20.6989 12.2827 20.6354 12.5334C20.6862 12.5083 20.7624 12.4582 20.8005 12.4206C20.8894 12.4457 20.8386 12.4331 20.8894 12.4707C20.9022 12.4833 20.9403 12.5209 20.953 12.5334C21.1562 12.8342 20.7751 12.8969 20.7497 12.9094C20.4956 13.0974 20.9149 13.0598 20.0129 13.0598C19.9239 13.3105 19.8477 13.0849 19.7207 13.4483C19.8604 13.3105 20.0256 13.0974 20.2415 13.2729C20.2161 13.3481 20.2543 13.323 20.1653 13.3731C20.1272 13.3982 20.1399 13.3857 20.1018 13.3982C20.1018 13.3982 20.0891 13.4107 20.0764 13.4107C20.0764 13.3982 20.0637 13.4107 20.051 13.4233C20.178 13.4734 20.0764 13.3982 20.1907 13.4483C20.1526 13.5361 20.1653 13.5611 20.1907 13.6489C20.2924 13.6238 20.2543 13.5737 20.394 13.6614L20.3305 13.7366C20.4702 13.7491 20.4194 13.699 20.5337 13.8118C20.4067 13.8243 20.394 13.887 20.2924 13.9246C20.1907 13.9622 20.178 14.0249 20.0891 14.075C20.0002 13.8995 20.1399 13.8745 20.2288 13.7867C20.051 13.7867 19.8731 13.9121 19.7334 14.0249C19.6699 14.075 19.6699 14.0875 19.6191 14.1377C19.6318 14.263 19.6826 14.3382 19.6953 14.3633C19.5936 14.4134 19.4412 14.4134 19.3396 14.4385C19.3142 14.5763 19.365 14.5011 19.3142 14.6515C19.2888 14.7142 19.2633 14.8145 19.2379 14.8771L19.1871 14.7518C19.1109 14.7894 19.1363 14.7894 19.0601 14.7518C19.1236 14.9022 19.1236 14.7643 19.1617 14.9523C19.2252 15.4161 19.1236 15.1905 18.8822 15.5038C18.8187 15.579 18.8187 15.579 18.7552 15.6542C18.5011 15.955 18.9076 16.1555 18.7552 16.6193C18.6917 16.5817 18.7298 16.6067 18.679 16.5566C18.6536 16.5315 18.6409 16.5065 18.6281 16.4814C18.4884 16.2683 18.59 16.1806 18.4249 15.955C18.2724 15.9801 18.4122 16.0051 18.3106 15.9801C18.1454 15.9299 18.3106 15.9174 17.8532 15.9174C17.904 15.9675 17.9294 16.0051 17.9675 16.0929C17.5864 15.955 17.561 15.9425 17.3832 16.1054L17.2688 16.1931C17.2307 16.2307 17.2434 16.2057 17.218 16.2683C17.1799 16.331 17.1799 16.7446 17.1799 16.8323C17.1799 17.0579 17.2307 17.1958 17.3196 17.3838C17.3832 17.5217 17.6118 17.5342 17.7389 17.459C17.9167 17.3587 17.6881 17.0078 18.1708 17.1081C18.1708 17.2209 18.0565 17.6721 18.0057 17.8225C18.3106 17.835 18.5773 17.7473 18.4884 18.1233C18.4376 18.3489 18.463 18.587 18.6663 18.7249C18.8441 18.6873 18.7425 18.6246 18.8949 18.6371C19.0474 18.6497 19.0093 18.6998 19.0982 18.775C19.1363 18.6622 19.1617 18.6998 19.1998 18.5995C19.2506 18.4993 19.2506 18.4742 19.3396 18.4241C19.4412 18.3739 19.5174 18.2862 19.6064 18.2486C19.5809 18.4366 19.5301 18.2486 19.5682 18.4491C19.7207 18.399 19.7842 18.2737 19.8985 18.4867C20.2288 18.4491 19.9621 18.4742 20.178 18.5494C20.2924 18.4867 20.2415 18.4617 20.394 18.4742C20.4194 18.5243 20.3813 18.4867 20.4194 18.5369C20.521 18.6998 20.5464 18.4867 20.5464 18.7499C20.7878 18.7123 20.7624 19.0257 20.9403 19.0883C21.1181 19.151 21.2833 18.9505 21.4611 19.3641L21.5882 19.6899C21.3087 19.9782 21.5246 19.8779 21.3849 19.9657C21.5882 20.0033 21.6263 20.1161 21.766 19.8654C21.9058 19.9155 21.9185 19.9531 22.0709 19.9907L22.0582 20.1286C22.5918 20.1035 22.6045 20.279 22.7315 20.3793C22.8077 20.4419 22.8331 20.4294 22.9221 20.4795C23.0618 21.0185 22.8967 20.9057 22.7442 21.2566L22.6553 21.4195C22.6299 21.4571 22.6045 21.4195 22.5918 21.4697C22.5791 21.5073 22.5664 22.1214 22.5155 22.3219C22.4393 22.5726 22.3758 22.6854 22.2996 22.7105L22.1471 22.7481C22.0328 22.7982 21.8677 22.911 21.8041 23.0113C21.6771 23.1867 21.7914 23.3371 21.6898 23.5251C21.5882 23.7131 21.3849 24.1769 21.2579 24.2897C21.1435 24.3899 21.0038 24.2771 20.864 24.2646C20.9276 24.3899 20.9276 24.2897 20.9784 24.4651C21.0546 24.7534 20.8132 24.9665 20.4956 24.8913C20.5337 24.9665 20.5083 25.1043 20.4829 25.2171L20.2543 25.2046C20.2543 25.2798 20.2288 25.2798 20.2797 25.3425L20.3559 25.3926C20.3559 25.3926 20.3686 25.4051 20.3813 25.4051C20.3813 25.4051 20.3686 25.4051 20.3559 25.4051L20.3051 25.4177C20.2543 25.4553 20.3305 25.4051 20.2797 25.4929L20.178 25.7561C20.1272 25.8438 20.1272 25.7937 20.0383 25.8438C19.9875 26.107 20.0383 25.9942 20.1653 26.0819C20.1907 26.2825 20.1018 26.2198 19.9875 26.4705C19.8858 26.7086 19.835 26.5081 19.9112 26.859L19.7715 26.9342C19.6572 27.0094 19.7461 27.0094 19.5682 27.0094L19.5555 26.9217C19.5174 26.8214 19.5301 26.9091 19.4793 26.8339C19.4158 26.7587 19.4285 26.6961 19.3523 26.6209C19.4285 26.4955 19.3777 26.6459 19.4158 26.5206C19.4412 26.4329 19.3904 26.1321 19.3396 26.0318L19.3269 26.0193C19.2888 25.9441 19.3015 26.0193 19.3142 25.8939C19.3777 25.919 19.3396 25.9065 19.3904 25.9566C19.4539 26.0067 19.3523 25.9441 19.4412 25.9942C19.4285 25.7811 19.5174 25.5681 19.5428 25.3049L19.5047 25.2923C19.5047 25.2923 19.4793 25.2798 19.4666 25.2798C19.4412 25.2673 19.4412 25.2798 19.4158 25.2171C19.3777 25.1169 19.4158 25.1043 19.4285 25.0542C19.5047 24.8286 19.3904 24.8286 19.4158 24.7033C19.4158 24.7033 19.5936 24.3022 19.6191 24.039C19.6318 23.9011 19.6191 23.7382 19.6318 23.5878C19.6445 23.2995 19.708 23.4123 19.708 22.8233C19.708 22.4723 19.9112 22.1339 19.4539 21.8707C19.1236 21.6702 19.2506 21.5699 19.1109 21.3318C18.9966 21.1438 18.9712 20.8681 18.8695 20.7051C18.7806 20.5547 18.7298 20.6299 18.7171 20.4545C18.7044 20.2038 18.7679 20.3041 18.8314 20.1662C18.7679 20.0409 18.806 20.1787 18.7679 20.0785C18.7425 20.0283 18.7425 20.0534 18.7552 19.9657C18.7679 19.9281 18.7806 19.8905 18.7933 19.8529C18.8441 19.6899 18.933 19.5771 19.022 19.4267C19.1617 19.1761 18.9966 18.9003 18.9712 18.8001C18.9457 18.6998 19.022 18.7249 18.8822 18.6622C18.7298 18.7374 18.8441 18.7625 18.7933 18.8627C18.6536 18.8502 18.7425 18.8502 18.6536 18.7875C18.6409 18.7875 18.6281 18.7625 18.6154 18.7625L18.4122 18.6121C18.3868 18.587 18.3233 18.587 18.2978 18.5118C18.2978 18.5118 18.2851 18.4993 18.2851 18.4867L18.1835 18.2361C18.0565 18.023 18.1835 18.1483 17.9802 18.0857C17.5483 17.9353 17.7516 17.8851 17.4848 17.7222C17.3451 17.7598 17.4213 17.7974 17.2815 17.7849C17.1164 17.7723 16.8877 17.5718 16.7988 17.5091C16.2906 17.1833 16.5701 17.2835 16.4558 16.9201C16.4177 16.8073 16.3033 16.707 16.2398 16.6193L16.1382 16.5065C16.1382 16.5065 16.1255 16.4939 16.1255 16.4814C16.0874 16.4062 16.1128 16.4187 16.0493 16.3185C15.973 16.2057 15.8968 16.143 15.8333 16.0177L15.7189 15.767C15.6808 15.7043 15.7189 15.7419 15.6554 15.7043C15.6046 15.767 15.63 15.6417 15.6173 15.8046C15.6046 15.9049 15.7952 16.2057 15.846 16.3059C15.8841 16.3811 15.8714 16.3435 15.9095 16.4438C15.9603 16.5817 16.1001 16.7446 16.0747 16.8574C15.9984 16.8198 16.062 16.8449 15.9984 16.7822C15.8968 16.6694 15.8841 16.7697 15.8333 16.5566C15.7952 16.3686 15.7189 16.3435 15.5919 16.2558C15.63 16.1806 15.6808 16.2182 15.6173 16.0803C15.5792 15.9926 15.5538 16.0177 15.503 15.955C15.4649 15.9049 15.4014 15.6667 15.3632 15.579C15.2489 15.2907 15.0329 15.4035 14.9059 15.015L14.8297 14.8145C14.728 14.6265 14.7026 14.4635 14.6772 14.2254C14.6518 13.9497 14.8043 13.7742 14.6391 13.3857C14.8424 13.3731 14.7789 13.3731 14.8424 13.4985C14.8424 13.3731 14.8297 13.323 14.7916 13.2603L14.7789 13.2478L14.3723 12.9219C14.385 12.8217 14.3596 12.9094 14.4231 12.8217C14.3215 12.8217 14.3342 12.8342 14.2961 12.7465C14.258 12.6713 14.2834 12.7214 14.2707 12.6587C14.2453 12.5585 14.2834 12.6211 14.2199 12.5961C14.1183 12.5334 14.1183 12.4833 14.1564 12.3705C13.9658 12.3203 13.9658 12.2702 13.915 12.0822C13.8642 11.9067 13.7625 11.8566 13.7371 11.6937C13.7371 11.7062 13.7244 11.7062 13.7244 11.7187C13.6736 11.7563 13.6609 11.7563 13.5974 11.7563C13.4831 11.7563 13.4704 11.7814 13.3179 11.6185C13.229 11.5182 13.3433 11.5809 13.2036 11.5558L12.7335 11.4179L12.7208 11.4054L12.454 11.2675V11.443L12.2889 11.5182L12.2762 11.5307L12.1746 11.5934C12.1619 11.4931 12.1491 11.443 12.2 11.3678C12.2889 11.2425 12.3016 11.3803 12.3143 11.2174C12.2254 11.255 12.1619 11.2801 12.111 11.3678L11.9586 11.5809C11.9205 11.6435 12.0094 11.6811 11.857 11.8065L11.3742 12.1574C11.3615 12.1574 11.3488 12.1699 11.3488 12.1825L11.3361 12.195L11.1074 12.2702C11.1582 12.1449 11.1582 12.1699 11.2726 12.1073C11.2726 12.1073 11.2853 12.1073 11.298 12.0947C11.3996 12.0446 11.5521 11.9443 11.6029 11.8441C11.7045 11.631 11.6029 11.6561 11.425 11.6435C11.3107 11.631 11.3615 11.6185 11.2218 11.6686C11.2091 11.4931 11.1964 11.4931 11.1709 11.3553C11.1455 11.5307 10.9677 11.4555 10.9169 11.3427C10.9677 11.3051 11.0185 11.3302 11.0439 11.3177C11.0312 11.3177 11.0312 11.3051 11.0185 11.3051C11.0185 11.3051 11.0058 11.2926 10.9931 11.2926C10.9931 11.2926 10.9804 11.2801 10.9677 11.2801C10.9677 11.2801 10.9296 11.255 10.9042 11.2425C10.8661 11.2174 10.8406 11.2049 10.8152 11.1923C10.8406 11.0294 10.9169 11.067 10.9677 10.879C11.082 10.9041 11.1964 10.8665 11.298 10.7913C11.2853 10.691 11.2853 10.6534 11.2472 10.5782C10.9296 10.7913 10.8279 10.6158 10.6755 10.4529C10.7644 10.3777 10.8661 10.3275 10.9677 10.2774C11.082 10.3401 11.0058 10.4153 11.1455 10.3401L11.2853 10.2523C10.8788 10.0518 11.2472 10.3526 10.9804 10.0769C10.9042 10.0142 10.9677 10.0643 10.9042 10.0267C10.7898 9.95153 10.8279 10.0393 10.8152 9.91393C10.9169 9.85126 10.9423 9.88886 11.0185 9.85126C11.1074 9.7886 11.1201 9.66326 11.2599 9.6006C11.3742 9.55046 11.3234 9.55046 11.3869 9.6006C11.4631 9.4878 11.425 9.5254 11.5267 9.50033C11.6156 9.47526 11.5775 9.46273 11.6664 9.38753C11.7045 9.43766 11.7807 9.4502 11.8697 9.47526L12.1237 9.55046C12.2 9.57553 12.2508 9.53793 12.3905 9.563C12.5049 9.58806 12.5176 9.6006 12.6446 9.61313L13.2036 9.72593C13.4195 9.77606 13.3941 9.9014 13.6863 9.87633C13.7752 9.83873 13.8007 9.68833 14.1437 9.6006C14.1056 9.7134 14.0928 9.68833 14.0039 9.751L13.9658 9.77606C14.0801 9.76353 14.0928 9.73846 14.1818 9.6758L14.2707 9.61313C14.2961 9.58806 14.2707 9.58806 14.3342 9.53793C14.3723 9.57553 14.4104 9.6006 14.4359 9.6382C14.474 9.68833 14.4613 9.70086 14.5121 9.76353C14.6264 9.7134 14.5375 9.72593 14.6518 9.62566L14.6899 9.73846C14.8932 9.66326 14.944 9.70086 15.16 9.7886C15.3886 9.88886 15.3632 9.77606 15.6173 9.9014C15.5919 9.9766 15.6046 9.92646 15.5665 9.9766C15.4522 10.1395 15.5919 9.88886 15.5284 10.0267C15.6427 10.0393 15.9222 10.0017 15.973 10.0142C16.1001 10.0393 16.1382 10.1771 16.2398 10.2398L16.1763 10.0643C16.2271 9.96406 16.1382 10.0142 16.3033 10.0017C16.2906 10.0017 16.2779 9.98913 16.2779 9.98913L16.1382 9.939C16.2271 9.9014 16.2779 9.8638 16.3923 9.85126C16.4177 9.91393 16.4304 9.96406 16.4939 9.9766C16.6082 10.0017 16.8115 10.0393 16.9512 10.0142C17.1037 9.98913 17.0402 10.0142 17.1164 9.91393C17.2815 9.939 17.1291 9.9766 17.2815 9.95153C17.2815 10.0643 17.2434 10.0017 17.2942 10.0894L17.3705 9.98913C17.4086 9.95153 17.434 9.939 17.4721 9.91393L17.434 9.73846ZM27.7623 14.9774C27.7623 14.7142 27.4828 14.8521 27.3303 14.5011C27.2795 14.3633 27.1398 14.2881 27.2287 14.1878C27.3176 14.1126 27.3176 14.1878 27.3557 14.2129C27.6225 14.3883 27.2922 14.263 27.6225 14.4761C27.9401 14.6766 27.7115 14.6265 28.0036 15.1779C28.0036 15.1779 28.0036 15.1905 28.0163 15.1905L28.0545 15.3785L28.2196 15.4035C28.1688 15.2281 28.2577 15.2531 28.3467 15.203C28.3085 15.1403 28.2196 14.9899 28.2069 14.9273H28.2196H28.2323L28.3085 14.8521C28.3594 14.8019 28.3467 14.8019 28.4737 14.8019C28.4991 14.9398 28.4737 14.8395 28.5372 14.9649C28.5372 14.9774 28.5499 14.9774 28.5499 14.9899C28.5499 15.0025 28.5626 15.0025 28.5626 15.015C28.6007 15.1278 28.5499 15.1027 28.5118 15.2155C28.6388 15.2657 28.5499 15.3033 28.6643 15.391C28.7151 15.4411 28.7024 15.4161 28.7532 15.4286L28.8421 15.4787C28.9437 15.4035 28.8548 15.4286 28.9691 15.391C29.0835 15.4537 29.0581 15.5289 29.1851 15.4662C29.3249 15.4035 29.1216 15.4035 29.4138 15.391C29.3884 15.5414 29.4011 15.6793 29.3503 15.8046C29.2994 15.9425 29.2867 16.0177 29.2486 16.1305C29.0708 16.143 29.0581 16.1054 28.9564 16.1054C28.8294 16.1054 28.8548 16.143 28.7532 16.1931C28.6515 16.1555 28.6388 16.1305 28.5372 16.1179C28.0036 16.0051 28.3721 15.8547 27.9528 15.9801C27.9274 16.1179 27.9782 16.2809 27.8258 16.2558L27.5717 16.1681C27.5209 16.143 27.5336 16.143 27.5209 16.1305L27.4955 16.0929C27.4955 16.0929 27.4955 16.0803 27.4828 16.0678L27.432 16.0051C27.2922 15.9049 27.2668 16.0427 27.089 15.8673L27.0763 15.8547L27.0636 15.8422C27.0509 15.8297 27.0127 15.8046 27.0127 15.8046C27.0636 15.7169 27.1144 15.6918 27.089 15.579C27.0636 15.4787 27.0127 15.579 27.1144 15.3785C26.9238 15.4161 27.1271 15.3785 26.9873 15.3659C26.8476 15.3534 26.8095 15.4161 26.5046 15.4035C26.314 15.391 26.0345 15.5038 25.9456 15.6667L25.7423 15.6291C25.628 15.6166 25.628 15.6291 25.6026 15.5038C25.6661 15.4662 25.6788 15.4662 25.7678 15.4537C26.3267 15.3409 25.8694 14.9147 26.3902 14.7267C26.3902 14.3758 26.4157 14.4886 26.6697 14.5387C26.746 14.451 26.6951 14.5011 26.7841 14.4259C27.0636 14.2379 26.9619 14.4385 27.0763 14.6014L27.5082 14.9899C27.6352 15.1529 27.5209 15.1153 27.5209 15.2406C27.5717 15.2281 27.6225 15.1779 27.6479 15.1153C27.7115 14.9147 27.5844 15.1027 27.6606 14.9147C27.6988 14.9147 27.686 14.9398 27.7623 14.9774Z" fill="url(#paint2_linear)"/>
<path d="M74.388 12.43C75.144 12.67 75.732 13.06 76.152 13.6C76.584 14.128 76.8 14.752 76.8 15.472C76.8 16.228 76.554 16.888 76.062 17.452C75.57 18.004 74.91 18.43 74.082 18.73C73.266 19.03 72.372 19.18 71.4 19.18C70.56 19.18 69.714 19.066 68.862 18.838C68.022 18.598 67.242 18.244 66.522 17.776L67.278 16.066C67.83 16.438 68.442 16.726 69.114 16.93C69.786 17.122 70.452 17.218 71.112 17.218C72.06 17.218 72.846 17.032 73.47 16.66C74.106 16.288 74.424 15.778 74.424 15.13C74.424 14.578 74.196 14.158 73.74 13.87C73.284 13.582 72.654 13.438 71.85 13.438H68.916V11.602H71.67C72.366 11.602 72.912 11.458 73.308 11.17C73.704 10.882 73.902 10.492 73.902 10C73.902 9.412 73.632 8.956 73.092 8.632C72.564 8.308 71.886 8.146 71.058 8.146C70.494 8.146 69.912 8.23 69.312 8.398C68.712 8.554 68.148 8.788 67.62 9.1L66.882 7.21C67.53 6.862 68.214 6.604 68.934 6.436C69.666 6.256 70.392 6.166 71.112 6.166C72.048 6.166 72.906 6.31 73.686 6.598C74.478 6.886 75.108 7.3 75.576 7.84C76.044 8.368 76.278 8.992 76.278 9.712C76.278 10.336 76.11 10.882 75.774 11.35C75.438 11.818 74.976 12.178 74.388 12.43Z" fill="#555555"/>
<path d="M83.4855 19.126C82.5135 19.126 81.6375 18.916 80.8575 18.496C80.0775 18.076 79.4655 17.494 79.0215 16.75C78.5895 15.994 78.3735 15.142 78.3735 14.194C78.3735 13.246 78.5895 12.4 79.0215 11.656C79.4655 10.912 80.0775 10.33 80.8575 9.91C81.6375 9.49 82.5135 9.28 83.4855 9.28C84.4695 9.28 85.3515 9.49 86.1315 9.91C86.9115 10.33 87.5175 10.912 87.9495 11.656C88.3935 12.4 88.6155 13.246 88.6155 14.194C88.6155 15.142 88.3935 15.994 87.9495 16.75C87.5175 17.494 86.9115 18.076 86.1315 18.496C85.3515 18.916 84.4695 19.126 83.4855 19.126ZM83.4855 17.2C84.3135 17.2 84.9975 16.924 85.5375 16.372C86.0775 15.82 86.3475 15.094 86.3475 14.194C86.3475 13.294 86.0775 12.568 85.5375 12.016C84.9975 11.464 84.3135 11.188 83.4855 11.188C82.6575 11.188 81.9735 11.464 81.4335 12.016C80.9055 12.568 80.6415 13.294 80.6415 14.194C80.6415 15.094 80.9055 15.82 81.4335 16.372C81.9735 16.924 82.6575 17.2 83.4855 17.2Z" fill="#555555"/>
<path d="M99.4447 9.388V19H97.1947V11.296H93.5947L93.5047 13.204C93.4447 14.476 93.3247 15.544 93.1447 16.408C92.9767 17.26 92.6827 17.938 92.2627 18.442C91.8547 18.934 91.2907 19.18 90.5707 19.18C90.2347 19.18 89.8207 19.114 89.3287 18.982L89.4367 17.092C89.6047 17.128 89.7487 17.146 89.8687 17.146C90.3247 17.146 90.6667 16.966 90.8947 16.606C91.1227 16.234 91.2667 15.796 91.3267 15.292C91.3987 14.776 91.4587 14.044 91.5067 13.096L91.6687 9.388H99.4447Z" fill="#555555"/>
<path d="M106.759 19.126C105.787 19.126 104.911 18.916 104.131 18.496C103.351 18.076 102.739 17.494 102.295 16.75C101.863 15.994 101.647 15.142 101.647 14.194C101.647 13.246 101.863 12.4 102.295 11.656C102.739 10.912 103.351 10.33 104.131 9.91C104.911 9.49 105.787 9.28 106.759 9.28C107.743 9.28 108.625 9.49 109.405 9.91C110.185 10.33 110.791 10.912 111.223 11.656C111.667 12.4 111.889 13.246 111.889 14.194C111.889 15.142 111.667 15.994 111.223 16.75C110.791 17.494 110.185 18.076 109.405 18.496C108.625 18.916 107.743 19.126 106.759 19.126ZM106.759 17.2C107.587 17.2 108.271 16.924 108.811 16.372C109.351 15.82 109.621 15.094 109.621 14.194C109.621 13.294 109.351 12.568 108.811 12.016C108.271 11.464 107.587 11.188 106.759 11.188C105.931 11.188 105.247 11.464 104.707 12.016C104.179 12.568 103.915 13.294 103.915 14.194C103.915 15.094 104.179 15.82 104.707 16.372C105.247 16.924 105.931 17.2 106.759 17.2Z" fill="#555555"/>
<path d="M121.374 11.296H118.008V19H115.758V11.296H112.374V9.388H121.374V11.296Z" fill="#555555"/>
<path d="M126.868 19.126C125.896 19.126 125.02 18.916 124.24 18.496C123.46 18.076 122.848 17.494 122.404 16.75C121.972 15.994 121.756 15.142 121.756 14.194C121.756 13.246 121.972 12.4 122.404 11.656C122.848 10.912 123.46 10.33 124.24 9.91C125.02 9.49 125.896 9.28 126.868 9.28C127.852 9.28 128.734 9.49 129.514 9.91C130.294 10.33 130.9 10.912 131.332 11.656C131.776 12.4 131.998 13.246 131.998 14.194C131.998 15.142 131.776 15.994 131.332 16.75C130.9 17.494 130.294 18.076 129.514 18.496C128.734 18.916 127.852 19.126 126.868 19.126ZM126.868 17.2C127.696 17.2 128.38 16.924 128.92 16.372C129.46 15.82 129.73 15.094 129.73 14.194C129.73 13.294 129.46 12.568 128.92 12.016C128.38 11.464 127.696 11.188 126.868 11.188C126.04 11.188 125.356 11.464 124.816 12.016C124.288 12.568 124.024 13.294 124.024 14.194C124.024 15.094 124.288 15.82 124.816 16.372C125.356 16.924 126.04 17.2 126.868 17.2Z" fill="#555555"/>
<path d="M134.221 9.388H136.471V15.724L141.781 9.388H143.833V19H141.583V12.664L136.291 19H134.221V9.388ZM138.883 8.254C137.911 8.254 137.167 8.032 136.651 7.588C136.147 7.132 135.889 6.472 135.877 5.608H137.371C137.383 6.04 137.515 6.382 137.767 6.634C138.031 6.886 138.397 7.012 138.865 7.012C139.321 7.012 139.681 6.886 139.945 6.634C140.221 6.382 140.365 6.04 140.377 5.608H141.907C141.895 6.472 141.631 7.132 141.115 7.588C140.599 8.032 139.855 8.254 138.883 8.254Z" fill="#555555"/>
<path d="M79.338 40L79.32 31.648L75.18 38.56H74.136L69.996 31.756V40H67.782V27.4H69.708L74.694 35.734L79.626 27.4H81.534L81.57 40H79.338Z" fill="#555555"/>
<path d="M84.844 30.388H87.094V36.724L92.404 30.388H94.456V40H92.206V33.664L86.914 40H84.844V30.388Z" fill="#555555"/>
<path d="M106.195 30.388V40H103.945V32.296H100.345L100.255 34.204C100.195 35.476 100.075 36.544 99.8947 37.408C99.7267 38.26 99.4327 38.938 99.0127 39.442C98.6047 39.934 98.0407 40.18 97.3207 40.18C96.9847 40.18 96.5707 40.114 96.0787 39.982L96.1867 38.092C96.3547 38.128 96.4987 38.146 96.6187 38.146C97.0747 38.146 97.4167 37.966 97.6447 37.606C97.8727 37.234 98.0167 36.796 98.0767 36.292C98.1487 35.776 98.2087 35.044 98.2567 34.096L98.4187 30.388H106.195Z" fill="#555555"/>
<path d="M117.937 30.388V40H115.687V32.296H112.087L111.997 34.204C111.937 35.476 111.817 36.544 111.637 37.408C111.469 38.26 111.175 38.938 110.755 39.442C110.347 39.934 109.783 40.18 109.063 40.18C108.727 40.18 108.313 40.114 107.821 39.982L107.929 38.092C108.097 38.128 108.241 38.146 108.361 38.146C108.817 38.146 109.159 37.966 109.387 37.606C109.615 37.234 109.759 36.796 109.819 36.292C109.891 35.776 109.951 35.044 109.999 34.096L110.161 30.388H117.937Z" fill="#555555"/>
<path d="M120.967 30.388H123.217V36.724L128.527 30.388H130.579V40H128.329V33.664L123.037 40H120.967V30.388Z" fill="#555555"/>
<path d="M137.188 30.28C138.604 30.28 139.684 30.622 140.428 31.306C141.184 31.978 141.562 32.998 141.562 34.366V40H139.438V38.83C139.162 39.25 138.766 39.574 138.25 39.802C137.746 40.018 137.134 40.126 136.414 40.126C135.694 40.126 135.064 40.006 134.524 39.766C133.984 39.514 133.564 39.172 133.264 38.74C132.976 38.296 132.832 37.798 132.832 37.246C132.832 36.382 133.15 35.692 133.786 35.176C134.434 34.648 135.448 34.384 136.828 34.384H139.312V34.24C139.312 33.568 139.108 33.052 138.7 32.692C138.304 32.332 137.71 32.152 136.918 32.152C136.378 32.152 135.844 32.236 135.316 32.404C134.8 32.572 134.362 32.806 134.002 33.106L133.12 31.468C133.624 31.084 134.23 30.79 134.938 30.586C135.646 30.382 136.396 30.28 137.188 30.28ZM136.882 38.488C137.446 38.488 137.944 38.362 138.376 38.11C138.82 37.846 139.132 37.474 139.312 36.994V35.878H136.99C135.694 35.878 135.046 36.304 135.046 37.156C135.046 37.564 135.208 37.888 135.532 38.128C135.856 38.368 136.306 38.488 136.882 38.488Z" fill="#555555"/>
<path d="M149.674 30.28C150.61 30.28 151.444 30.484 152.176 30.892C152.92 31.3 153.502 31.876 153.922 32.62C154.342 33.364 154.552 34.222 154.552 35.194C154.552 36.166 154.342 37.03 153.922 37.786C153.502 38.53 152.92 39.106 152.176 39.514C151.444 39.922 150.61 40.126 149.674 40.126C148.378 40.126 147.352 39.694 146.596 38.83V43.492H144.346V30.388H146.488V31.648C146.86 31.192 147.316 30.85 147.856 30.622C148.408 30.394 149.014 30.28 149.674 30.28ZM149.422 38.2C150.25 38.2 150.928 37.924 151.456 37.372C151.996 36.82 152.266 36.094 152.266 35.194C152.266 34.294 151.996 33.568 151.456 33.016C150.928 32.464 150.25 32.188 149.422 32.188C148.882 32.188 148.396 32.314 147.964 32.566C147.532 32.806 147.19 33.154 146.938 33.61C146.686 34.066 146.56 34.594 146.56 35.194C146.56 35.794 146.686 36.322 146.938 36.778C147.19 37.234 147.532 37.588 147.964 37.84C148.396 38.08 148.882 38.2 149.422 38.2Z" fill="#555555"/>
<path d="M166.946 38.092V42.142H164.84V40H157.424V42.142H155.336V38.092H155.786C156.398 38.068 156.812 37.678 157.028 36.922C157.256 36.154 157.406 35.074 157.478 33.682L157.604 30.388H165.524V38.092H166.946ZM159.53 33.844C159.482 34.948 159.392 35.848 159.26 36.544C159.128 37.24 158.888 37.756 158.54 38.092H163.274V32.296H159.584L159.53 33.844Z" fill="#555555"/>
<defs>
<linearGradient id="paint0_linear" x1="27.02" y1="23.5706" x2="27.02" y2="42.8389" gradientUnits="userSpaceOnUse">
<stop stop-color="#F4A631"/>
<stop offset="1" stop-color="#EA8B33"/>
</linearGradient>
<linearGradient id="paint1_linear" x1="27" y1="0" x2="27" y2="47" gradientUnits="userSpaceOnUse">
<stop stop-color="#F4A631"/>
<stop offset="1" stop-color="#F49136"/>
</linearGradient>
<linearGradient id="paint2_linear" x1="26.9873" y1="6.86833" x2="26.9873" y2="27.0094" gradientUnits="userSpaceOnUse">
<stop stop-color="#F4A631"/>
<stop offset="1" stop-color="#EA8B33"/>
</linearGradient>
</defs>
</svg>
