<svg width="32" height="32" viewBox="0 0 32 32" fill="none" xmlns="http://www.w3.org/2000/svg">
<path d="M10.9931 5.11987L5.5432 11.2866H31.1651L25.7153 5.11987H10.9931Z" fill="#5385E5"/>
<path d="M31.1651 11.2866H4.94601L18.0556 26.0587L31.1651 11.2866Z" fill="#5385E5"/>
<path d="M10.0562 11.2866L16 28.375L17.5937 23.793L13.2437 11.2866H10.0562Z" fill="white"/>
<path d="M13.2437 11.2866L17.5937 23.793L21.9438 11.2866H13.2437Z" fill="#ACCCF1"/>
<path d="M6.28476 5.11987L10.0562 11.2866L12.2358 9.02531L9.84726 5.11987H6.28476Z" fill="white"/>
<path d="M9.84726 5.11987L12.2358 9.02531L16 5.11987H9.84726Z" fill="#ACCCF1"/>
<path d="M19.5625 5.11987H16L17.7812 6.96787L21.9438 11.2866L23.3267 9.02531L19.5625 5.11987Z" fill="white"/>
<path d="M19.5625 5.11987L23.3267 9.02531L25.7152 5.11987H19.5625Z" fill="#ACCCF1"/>
<path d="M31.6334 10.8727L26.1836 4.706C26.065 4.57175 25.8944 4.49487 25.7153 4.49487H6.28475C6.10562 4.49487 5.93506 4.57175 5.81644 4.706L0.366562 10.8727C0.203812 11.0569 0.164125 11.3193 0.265125 11.5434C0.303188 11.6279 0.358687 11.7009 0.426187 11.7592C0.4275 11.7607 0.4285 11.7623 0.429812 11.7638L15.5324 28.7897C15.6511 28.9235 15.8212 29 16 29C16.1787 29 16.3489 28.9234 16.4676 28.7897L31.5702 11.7638C31.5715 11.7624 31.5726 11.7607 31.5738 11.7592C31.6412 11.7009 31.6967 11.6279 31.7349 11.5434C31.8359 11.3193 31.7962 11.0569 31.6334 10.8727ZM16 6.13137L20.5034 10.6616H11.4966L16 6.13137ZM10.1705 10.2226L7.39294 5.74487H14.6217L10.1705 10.2226ZM17.3782 5.74481H24.6071L21.8295 10.2226L17.3782 5.74481ZM9.61794 11.9116L14.7202 25.9904L2.23181 11.9116H9.61794ZM20.4982 15.5131C20.1743 15.3934 19.8149 15.5589 19.6954 15.8827L16.0057 25.8688L10.9475 11.9116H29.7682L17.303 25.9642L20.8679 16.316C20.9875 15.9922 20.822 15.6327 20.4982 15.5131ZM23.0282 10.6616L25.8122 6.17337L29.7787 10.6616H23.0282ZM6.18775 6.17337L8.97181 10.6616H2.22131L6.18775 6.17337Z" fill="black"/>
<path d="M21.0894 14.3975C21.4346 14.3975 21.7144 14.1177 21.7144 13.7725C21.7144 13.4273 21.4346 13.1475 21.0894 13.1475C20.7442 13.1475 20.4644 13.4273 20.4644 13.7725C20.4644 14.1177 20.7442 14.3975 21.0894 14.3975Z" fill="black"/>
</svg>
