<svg width="20" height="20" viewBox="0 0 20 20" fill="none" xmlns="http://www.w3.org/2000/svg">
<path d="M14.3416 7.50002L10.6916 2.03335C10.5333 1.80002 10.2666 1.68335 9.99998 1.68335C9.73331 1.68335 9.46665 1.80002 9.30831 2.04168L5.65831 7.50002H1.66665C1.20831 7.50002 0.833313 7.87502 0.833313 8.33335C0.833313 8.40835 0.841646 8.48335 0.866646 8.55835L2.98331 16.2833C3.17498 16.9833 3.81665 17.5 4.58331 17.5H15.4166C16.1833 17.5 16.825 16.9833 17.025 16.2833L19.1416 8.55835L19.1666 8.33335C19.1666 7.87502 18.7916 7.50002 18.3333 7.50002H14.3416ZM7.49998 7.50002L9.99998 3.83335L12.5 7.50002H7.49998ZM9.99998 14.1667C9.08331 14.1667 8.33331 13.4167 8.33331 12.5C8.33331 11.5833 9.08331 10.8333 9.99998 10.8333C10.9166 10.8333 11.6666 11.5833 11.6666 12.5C11.6666 13.4167 10.9166 14.1667 9.99998 14.1667Z" fill="#D8E1E8"/>
</svg>
