<svg width="32" height="32" viewBox="0 0 32 32" fill="none" xmlns="http://www.w3.org/2000/svg">
<path d="M29.7897 21.0811C29.7822 20.1161 29.4011 19.2484 28.7972 18.5887C29.4106 17.8973 29.7567 16.8246 29.7496 15.8937C29.7392 14.5601 29.029 13.4017 27.9752 12.7455C28.2803 12.1975 28.4661 11.5748 28.4609 10.9036C28.448 9.22987 27.3399 7.69838 25.8221 7.18075C25.8201 7.16231 26.3667 5.51113 24.9937 4.15769C24.5182 3.69013 23.8932 3.37306 23.1981 3.28469C22.982 2.67194 22.6104 2.10044 22.1317 1.64294C21.4642 1.00494 20.5879 0.589127 19.631 0.596564C19.17 0.600127 18.7294 0.696439 18.3227 0.866189C16.9024 1.45906 15.8991 2.95275 15.9116 4.56294C15.9031 3.46569 15.4237 2.42969 14.667 1.70031C14.1759 2.17163 13.7985 2.76413 13.586 3.3975C12.8924 3.49663 12.2724 3.82331 11.8042 4.29819C10.4732 5.65138 11.0226 7.32737 11.0226 7.33369C9.513 7.87475 8.42868 9.42319 8.44162 11.0969C8.44681 11.7681 8.64225 12.3879 8.95581 12.9311C7.91225 13.6035 7.22 14.7727 7.23031 16.1064C7.2375 17.0381 7.60075 18.105 8.22418 18.7862C7.63056 19.4552 7.26293 20.3287 7.27043 21.2937C7.27937 22.453 7.82481 23.4726 8.65699 24.1543C8.59106 24.4379 8.54706 24.7296 8.54943 25.0339C8.56543 27.1051 10.2586 28.9583 12.3297 28.9423C12.4716 28.9412 12.6064 28.9139 12.7438 28.8972C13.0664 29.5784 13.5577 30.1634 14.1634 30.5972C15.332 29.7487 16.0953 28.3311 16.0836 26.8122C16.0972 28.5681 17.1446 30.1725 18.6431 30.9116C19.2066 31.1896 19.8334 31.3459 20.4937 31.3408C21.4264 31.3336 22.2856 31.0334 22.989 30.529C23.6124 30.0819 24.1135 29.4746 24.4346 28.7684C24.5722 28.7829 24.7074 28.8081 24.8493 28.8071C26.9205 28.7911 28.5847 26.9119 28.5687 24.8407C28.5664 24.5363 28.5179 24.2454 28.4476 23.9629C29.2691 23.2682 29.7986 22.2404 29.7897 21.0811Z" fill="#FFA8BE"/>
<path d="M19.125 6.4375C19.47 6.4375 19.75 6.1575 19.75 5.8125C19.75 5.4675 19.47 5.1875 19.125 5.1875C18.78 5.1875 18.5 5.4675 18.5 5.8125C18.5 6.1575 18.78 6.4375 19.125 6.4375Z" fill="black"/>
<path d="M12.875 6.4375C13.22 6.4375 13.5 6.1575 13.5 5.8125C13.5 5.4675 13.22 5.1875 12.875 5.1875C12.53 5.1875 12.25 5.4675 12.25 5.8125C12.25 6.1575 12.53 6.4375 12.875 6.4375Z" fill="black"/>
<path d="M1.625 21.1875C1.625 22.351 2.09675 23.4594 2.93119 24.2824C2.50219 26.8756 4.57031 29.5 7.25 29.5C7.26937 29.5 7.28844 29.4997 7.30713 29.4991C8.19556 31.0317 9.84469 32 11.625 32C13.4805 32 15.1385 30.8863 16 29.2816C16.8615 30.8863 18.5195 32 20.375 32C22.1553 32 23.8044 31.0317 24.6929 29.4991C24.7116 29.4997 24.7306 29.5 24.75 29.5C27.1215 29.5 29.125 27.4106 29.125 24.9375C29.125 24.7269 29.1065 24.5104 29.0688 24.2824C29.9033 23.4594 30.375 22.3511 30.375 21.1875C30.375 20.2903 30.0922 19.4169 29.5702 18.6801C30.1066 17.875 30.375 16.8704 30.375 16C30.375 14.6877 29.7921 13.4686 28.7917 12.6418C29.0131 12.1128 29.125 11.5626 29.125 11C29.125 9.25906 28.109 7.63731 26.5984 6.88C26.8276 4.97913 25.589 3.23675 23.7534 2.79231C23.035 1.1315 21.4359 0 19.75 0C18.1806 0 16.7731 0.915375 16 2.251C15.2269 0.915375 13.8193 0 12.25 0C10.5639 0 8.96488 1.1315 8.24656 2.79238C6.4 3.23962 5.173 4.99069 5.40156 6.88C3.89106 7.63725 2.875 9.25906 2.875 11C2.875 11.5626 2.98688 12.1128 3.20825 12.6418C2.20794 13.4686 1.625 14.6877 1.625 16C1.625 16.875 1.89562 17.8783 2.42981 18.6801C1.90781 19.4169 1.625 20.2903 1.625 21.1875ZM19.75 1.25C20.8285 1.25 21.745 1.914 22.2962 2.73213C21.5147 2.8525 20.7936 3.21575 20.2233 3.78531C19.9791 4.02925 19.9788 4.42494 20.2227 4.66919C20.4667 4.91344 20.8625 4.91362 21.1066 4.66969C21.5794 4.19756 22.2074 3.9375 22.875 3.9375C24.2496 3.9375 25.375 5.04919 25.375 6.4375C25.375 6.454 25.3738 6.47006 25.3734 6.4865C25.1674 6.45444 24.9592 6.4375 24.75 6.4375C22.3785 6.4375 20.375 8.52687 20.375 11C20.375 11.3452 20.6549 11.625 21 11.625C21.3451 11.625 21.625 11.3452 21.625 11C21.625 9.23544 23.0853 7.6875 24.75 7.6875C26.4989 7.6875 27.875 9.31231 27.875 11C27.875 11.5252 27.7341 12.0399 27.4563 12.5299C27.2919 12.8198 27.384 13.1877 27.6656 13.3661C28.5794 13.9451 29.125 14.9297 29.125 16C29.125 17.7707 27.6912 19.3125 26 19.3125C25.6549 19.3125 25.375 19.5923 25.375 19.9375C25.375 20.2827 25.6549 20.5625 26 20.5625C26.9844 20.5625 27.9168 20.1936 28.6664 19.5794C28.9647 20.0659 29.125 20.6206 29.125 21.1875C29.125 22.1044 28.7098 22.9759 27.9858 23.5783C27.8028 23.7306 27.7222 23.9735 27.7779 24.2049C27.8442 24.4801 27.875 24.7129 27.875 24.9374C27.875 26.8774 26.1203 28.4453 24.5383 28.2291C24.4944 28.2231 24.4504 28.2171 24.4062 28.2121C24.1383 28.1818 23.8819 28.3259 23.7687 28.57C23.1541 29.8943 21.8219 30.75 20.375 30.75C18.3423 30.75 16.625 28.9468 16.625 26.8125C16.625 24.7448 18.3073 23.0625 20.375 23.0625C20.7201 23.0625 21 22.7827 21 22.4375C21 22.0923 20.7201 21.8125 20.375 21.8125C18.8827 21.8125 17.5419 22.4705 16.625 23.5106V11.625C16.625 10.9358 17.1858 10.375 17.875 10.375C18.2201 10.375 18.5 10.0952 18.5 9.75C18.5 9.40481 18.2201 9.125 17.875 9.125C17.4198 9.125 16.993 9.24788 16.625 9.46131V4.5625C16.625 2.79787 18.0853 1.25 19.75 1.25ZM4.3345 13.3661C4.61606 13.1877 4.70812 12.8198 4.54369 12.5299C4.26587 12.0399 4.125 11.5252 4.125 11C4.125 9.31312 5.50012 7.6875 7.25 7.6875C8.91475 7.6875 10.375 9.23544 10.375 11C10.375 11.3452 10.6548 11.625 11 11.625C11.3452 11.625 11.625 11.3452 11.625 11C11.625 8.52687 9.6215 6.4375 7.25 6.4375C7.04075 6.4375 6.83262 6.45444 6.62656 6.4865C6.62625 6.47006 6.625 6.45406 6.625 6.4375C6.625 5.04269 7.75731 3.9375 9.125 3.9375C9.79263 3.9375 10.4206 4.19756 10.8933 4.66969C11.1374 4.91362 11.5331 4.91337 11.7771 4.66925C12.0211 4.425 12.0209 4.02931 11.7767 3.78538C11.2065 3.21581 10.4853 2.85256 9.70375 2.73219C10.2549 1.914 11.1715 1.25 12.25 1.25C13.9148 1.25 15.375 2.79787 15.375 4.5625V9.46131C15.007 9.24788 14.5802 9.125 14.125 9.125C13.7798 9.125 13.5 9.40481 13.5 9.75C13.5 10.0952 13.7798 10.375 14.125 10.375C14.8142 10.375 15.375 10.9358 15.375 11.625V23.5106C14.4581 22.4705 13.1173 21.8125 11.625 21.8125C11.2798 21.8125 11 22.0923 11 22.4375C11 22.7827 11.2798 23.0625 11.625 23.0625C13.6927 23.0625 15.375 24.7448 15.375 26.8125C15.375 28.9468 13.6577 30.75 11.625 30.75C10.178 30.75 8.84594 29.8943 8.23131 28.57C8.118 28.3259 7.86137 28.182 7.59381 28.2121C7.54962 28.2172 7.50569 28.2231 7.46175 28.2291C5.683 28.4723 3.67988 26.4581 4.22213 24.2049C4.27781 23.9734 4.19719 23.7306 4.01425 23.5783C3.29025 22.9759 2.875 22.1044 2.875 21.1875C2.875 20.6206 3.03531 20.0658 3.33363 19.5793C4.08325 20.1936 5.01569 20.5625 6 20.5625C6.34519 20.5625 6.625 20.2827 6.625 19.9375C6.625 19.5923 6.34519 19.3125 6 19.3125C4.30381 19.3125 2.875 17.7644 2.875 16C2.875 14.9297 3.42056 13.9451 4.3345 13.3661Z" fill="black"/>
<path d="M10.2875 15.3161C10.0469 16.0741 9.33662 16.625 8.5 16.625C8.15481 16.625 7.875 16.9048 7.875 17.25C7.875 17.5952 8.15481 17.875 8.5 17.875C10.0223 17.875 11.2931 16.7806 11.5689 15.3374C12.4381 15.2237 13.2561 14.8518 13.9167 14.2608C14.1739 14.0307 14.1959 13.6356 13.9658 13.3783C13.7357 13.1211 13.3406 13.0991 13.0833 13.3292C11.0791 15.122 7.875 13.6892 7.875 11C7.875 10.6548 7.59519 10.375 7.25 10.375C6.90481 10.375 6.625 10.6548 6.625 11C6.625 13.1697 8.21294 14.9747 10.2875 15.3161Z" fill="black"/>
<path d="M7.25 24.3125C6.90481 24.3125 6.625 24.5923 6.625 24.9375C6.625 25.2827 6.90481 25.5625 7.25 25.5625C8.91475 25.5625 10.375 27.1104 10.375 28.875C10.375 29.2202 10.6548 29.5 11 29.5C11.3452 29.5 11.625 29.2202 11.625 28.875C11.625 26.4019 9.6215 24.3125 7.25 24.3125Z" fill="black"/>
<path d="M12.25 19.3125C10.1321 19.3125 8.31374 20.4741 7.35624 22.163C7.18605 22.4633 7.29149 22.8448 7.59174 23.0149C7.89205 23.1851 8.27343 23.0798 8.44368 22.7794C9.18962 21.4634 10.605 20.5625 12.25 20.5625C12.5952 20.5625 12.875 20.2827 12.875 19.9375C12.875 19.5923 12.5952 19.3125 12.25 19.3125Z" fill="black"/>
<path d="M18.0342 13.3783C17.804 13.6356 17.8261 14.0307 18.0833 14.2608C18.7439 14.8518 19.562 15.2237 20.4311 15.3374C20.7069 16.7806 21.9777 17.875 23.5 17.875C23.8451 17.875 24.125 17.5952 24.125 17.25C24.125 16.9048 23.8451 16.625 23.5 16.625C22.6634 16.625 21.9531 16.0741 21.7125 15.3161C23.7871 14.9747 25.375 13.1697 25.375 11C25.375 10.6548 25.0951 10.375 24.75 10.375C24.4049 10.375 24.125 10.6548 24.125 11C24.125 12.7231 22.7231 14.125 21 14.125C20.2302 14.125 19.4904 13.8424 18.9167 13.3292C18.6595 13.0991 18.2643 13.121 18.0342 13.3783Z" fill="black"/>
<path d="M24.75 24.3125C22.3785 24.3125 20.375 26.4019 20.375 28.875C20.375 29.2202 20.6549 29.5 21 29.5C21.3451 29.5 21.625 29.2202 21.625 28.875C21.625 27.1104 23.0852 25.5625 24.75 25.5625C25.0951 25.5625 25.375 25.2827 25.375 24.9375C25.375 24.5923 25.0951 24.3125 24.75 24.3125Z" fill="black"/>
<path d="M23.5562 22.7794C23.7266 23.0801 24.1083 23.185 24.4081 23.015C24.7084 22.8448 24.8139 22.4634 24.6437 22.1631C23.6886 20.4781 21.8727 19.3125 19.75 19.3125C19.4049 19.3125 19.125 19.5923 19.125 19.9375C19.125 20.2827 19.4049 20.5625 19.75 20.5625C21.3938 20.5625 22.8102 21.4632 23.5562 22.7794Z" fill="black"/>
</svg>
